<svg xmlns="http://www.w3.org/2000/svg" viewBox="0 0 269.21 58.53"><defs><style>.cls-1{fill:#fff;}</style></defs><g id="图层_2" data-name="图层 2"><g id="图层_1-2" data-name="图层 1"><path class="cls-1" d="M88.74,34.49V32.37h-8.5v-.81H87.3v-2H80.24v-.7H87V21.44H80.24V20.7H89V18.63H80.24V17.7c2.65-.11,5.17-.27,7-.38L86.85,15c-4.3.31-11.74.61-16.29.67L70.7,18c1.82,0,4.34-.09,6.93-.18v.81H68.88V20.7h8.75v.74H70.88v7.44h6.75v.7h-7v2h7v.81h-8.5v2.12Zm-4.41-11v.7H80.24v-.7Zm-10.8,2.66h4.1v.7h-4.1v-.7Zm6.71.7v-.7h4.09v.7Zm-6.71-3.36h4.1v.7h-4.1v-.7Zm30.69-3.37h-2.68V22.9H96.1v2.68h5.28c-.54,3-2.49,5-6.93,7.29,1.13-2.5,1.35-5,1.35-8.71V19.77h15.46V17h-7c-.48-.9-1-1.91-1.31-2.41l-2.88.54c.25.36.68,1.15,1.08,1.87H93v7.4c0,4.43-.6,6.55-2.45,9.54l2.66,1.17a17.35,17.35,0,0,0,1.12-2L96.1,35.3c3.44-1.89,5.64-4,6.88-6.39a14.48,14.48,0,0,0,7.29,6.52l1.23-2.61a11.16,11.16,0,0,1-7-7.24h6V22.9h-6.29V20.09Zm11.87-.47v8.66h6.46V29.4h-8.5v2.32h8.5v3h2.7v-3h8.52V29.4h-8.52V28.28h6.5V19.62h-6.86v-1H133v-2.3h-8.1V14.92h-2.75v4.7Zm2.7,2.29H129v.95H118.79v-.95Zm0,4.07V25H129V26Zm20.88-.74-2.3,0c0,4.2-.38,6-1.75,9l2.25.77a22.91,22.91,0,0,0,1.1-3c1.17,1.8,3.31,2.59,6.52,2.59h10.69l.45-2.52h-8.06a29,29,0,0,0,2.79-2.66c.88,2,1.8,2.45,2.7,2.45,1.15,0,1.71-.63,2.14-2.34a26.82,26.82,0,0,0,.52-2.65l-2.09-.72c0,.52-.23,1.53-.3,2s-.2.72-.31.72-.34-.18-.54-.74c-.09-.27-.2-.61-.29-1a23.2,23.2,0,0,0,2.58-5.33l-2-.72A25.14,25.14,0,0,1,152.6,24c-.16-1.08-.29-2.25-.38-3.51h4V18.13h-1.75L155.71,17c-.48-.54-1.65-1.68-2.19-2.16L152,16.24V15.07h-2.43l.07,3.06h-3.91v8.3c0,.65,0,1-.41,1.31V26.66h-2.18V24.23h2.21V21.89H142.7V19.73h2.59V17.39H142.7V15.1h-2.47v2.29h-2.92v2.34h2.92v2.16h-3.67v2.34h4.14v6.21a7.47,7.47,0,0,1-1.1-2.3c0-.85.07-1.82.07-2.9Zm5.64,3.8v-.92l1.15,1.48c.9-.72,3.44-2.74,3.71-2.92l-.74-2.29-1.33,1.05v-5h1.67A39.75,39.75,0,0,0,150.6,27a26.83,26.83,0,0,1-3.8,3.49l1.44,1.6h-2.48a15.27,15.27,0,0,1-2.63-.18V29Zm8.37-10.91h-1.62L152,16.36c.45.42,1.17,1.21,1.69,1.77Zm23.75.92V16.22H160.38v2.83h7V31H159v2.75h19.73V31h-8.37v-12Zm23.26,7.07V23.64H189.13v2.48h4.39v1.59h-4.05V30.1h4.05v1.57h-5.6v2.61h13.45V31.67h-5.29V30.1h4.07V27.71h-4.07V26.12Zm-12.84,2.79,1.84-1.6c-.69-.85-2.11-2.45-2.67-3.08l-.52.45V23.17h2.38V20.61H186.5V18.2c1-.2,1.91-.41,2.63-.63l-.54-2.47a54.39,54.39,0,0,1-7.08,1.41l.22,2.52c.65-.09,1.49-.22,2.34-.38v2h-2.61v2.56h2.41a26.38,26.38,0,0,1-3.08,5.89l1.53,2.21a23.41,23.41,0,0,0,1.75-3.11v6.62h2.43V27.22l1.35,1.69Zm1.51-13.16v6.79h10.93V15.75Zm2.56,2.31h5.76v2.19h-5.76V18.06Zm31.81.21V15.79h-12.1v2.48h4.58v2h-4.36v11.4h2.39V22.77h2v12h2.39V29.92l.45,2.18h1.53c2,0,2.43-.52,2.43-2.5V20.25H218.6v-2Zm-12.94-3.2h-2.47v8.46c0,5.51-.45,7-4.14,10l2,1.82c3.74-3.35,4.59-5.78,4.59-12V15.07Zm-6.27,14.6h2.31V16.51h-2.31V29.67Zm16.15-6.9v5.89c0,.85-.07.92-.9.92H218.6V22.77Zm6.16.31h2.68v-2.2h13.7V22.2H230.09v2.57h8.53a20.07,20.07,0,0,0-3.33,1.48v.81h-8.68v2.61h8.68v1.51c0,1-.09,1.1-1.21,1.1h-2.77l.54,2.66h2.81c2.65,0,3.46-.61,3.46-2.95V29.67h8V27.06h-7.54c1.47-.83,4.21-2.36,4.93-2.38v-1.6h2.38V18.33h-3.23c.6-.81,1.23-1.73,1.68-2.36l-2.56-1.26a35.06,35.06,0,0,1-2.32,3.62H238l.38-.18c-.38-.67-1.77-3.17-2-3.64L234,15.59l1.42,2.74h-2.79l.43-.22c-.38-.63-1.89-2.88-2.25-3.4l-2.38,1.17c.31.57,1,1.6,1.5,2.45h-3.08v4.75Zm22.56,11.56h2.43v-4.9l.3,1.44h1c2.3,0,3.17-.79,3.17-3.44a9.93,9.93,0,0,0-1.68-5.22l1.5-4.37V15.61h-6.77v19Zm7-12.86h1.55V23.6h8.93V21.78h1.71V16.9h-4.7c-.38-.86-.94-2-1.12-2.3l-2.48.52.83,1.78h-4.72v4.88Zm12.82,7.82-2.14-.4c0,.52,0,1.51,0,2.09s-.14.88-.72.88h-.5c-.58,0-.74-.07-.74-.72V27.78h3.38V25.35H256.66v2.43h1.93c-.09,2.84-.78,3.85-3.93,5.67l1.77,1.89c3.56-2.27,4.57-3.87,4.62-7.51v0h1.55v4.39c0,2,.63,2.52,2.43,2.52h1.37c1.84,0,2.65-.52,2.72-2.52.05-.65.07-1.91.09-2.57ZM251.82,18.18h1.92L252.18,23a6.63,6.63,0,0,1,1.62,4c0,1.22-.27,1.67-1.39,1.67h-.59V18.18Zm6.84,1.19h7.54v1.8h-7.54v-1.8Z"/><path class="cls-1" d="M58.53,29.31v-.09a2.88,2.88,0,0,0-.15-1.08s-.05-.09-.09-.11a1,1,0,0,0,.09-.19,4.36,4.36,0,0,0-.21-2.23.27.27,0,0,0-.1-.11.87.87,0,0,0,.08-.19,4.42,4.42,0,0,0-.41-2.2.29.29,0,0,0-.11-.11.58.58,0,0,0,.06-.19,4.49,4.49,0,0,0-.59-2.16.31.31,0,0,0-.12-.09,1.07,1.07,0,0,0,0-.21,4.33,4.33,0,0,0-.78-2.09.2.2,0,0,0-.13-.08.61.61,0,0,0,0-.21,4.42,4.42,0,0,0-1-2,.33.33,0,0,0-.13-.07.76.76,0,0,0,0-.21,4.64,4.64,0,0,0-1.13-1.93l-.14-.05a1.22,1.22,0,0,0,0-.21,4.51,4.51,0,0,0-1.3-1.83.42.42,0,0,0-.15,0,.65.65,0,0,0,0-.21,4.51,4.51,0,0,0-1.46-1.7.37.37,0,0,0-.14,0,.43.43,0,0,0-.05-.19,4.37,4.37,0,0,0-1.59-1.58.39.39,0,0,0-.15,0,.68.68,0,0,0-.06-.2,4.35,4.35,0,0,0-1.73-1.43.4.4,0,0,0-.15,0,.78.78,0,0,0-.08-.18,4.34,4.34,0,0,0-1.84-1.28H44.9a1.06,1.06,0,0,0-.11-.19,4.32,4.32,0,0,0-1.94-1.1.31.31,0,0,0-.14,0,.82.82,0,0,0-.12-.16,4.31,4.31,0,0,0-2-.94.29.29,0,0,0-.14,0,1.26,1.26,0,0,0-.13-.16,4.46,4.46,0,0,0-2.11-.75.2.2,0,0,0-.14.05c-.05-.07-.11-.12-.14-.16A4.51,4.51,0,0,0,35.71.85a.31.31,0,0,0-.13.06L35.43.77A4.39,4.39,0,0,0,33.21.4a.26.26,0,0,0-.13.06.74.74,0,0,0-.16-.12A4.42,4.42,0,0,0,30.69.16a.32.32,0,0,0-.13.08L30.39.13A3.73,3.73,0,0,0,29.27,0a3.15,3.15,0,0,0-1.13.15L28,.23a.67.67,0,0,0-.18-.08,4.36,4.36,0,0,0-2.23.21.27.27,0,0,0-.11.1.87.87,0,0,0-.19-.08A4.48,4.48,0,0,0,23.1.79a.32.32,0,0,0-.1.1L22.8.83a4.32,4.32,0,0,0-2.15.6s-.07.08-.1.11l-.2,0a4.36,4.36,0,0,0-2.09.78.28.28,0,0,0-.09.13.54.54,0,0,0-.2,0,4.66,4.66,0,0,0-2,.95.61.61,0,0,0-.07.14h-.2a4.53,4.53,0,0,0-1.94,1.14.34.34,0,0,0-.05.14.66.66,0,0,0-.21,0,4.49,4.49,0,0,0-1.83,1.3.33.33,0,0,0,0,.13.5.5,0,0,0-.2,0A4.45,4.45,0,0,0,9.69,7.68a.43.43,0,0,0,0,.14.52.52,0,0,0-.2.06A4.34,4.34,0,0,0,7.88,9.47a.77.77,0,0,0,0,.15.43.43,0,0,0-.19.06,4.35,4.35,0,0,0-1.43,1.73.17.17,0,0,0,0,.14.48.48,0,0,0-.19.09,4.34,4.34,0,0,0-1.28,1.84v.15l-.18.09a4.59,4.59,0,0,0-1.11,1.95.33.33,0,0,0,0,.15.71.71,0,0,0-.17.11,4.5,4.5,0,0,0-.94,2c0,.06,0,.1,0,.15a.75.75,0,0,0-.16.13,4.32,4.32,0,0,0-.75,2.11.33.33,0,0,0,0,.14l-.15.14a4.47,4.47,0,0,0-.56,2.17.26.26,0,0,0,.06.13.87.87,0,0,0-.14.16,4.47,4.47,0,0,0-.38,2.21.46.46,0,0,0,.07.14.71.71,0,0,0-.12.15,4.45,4.45,0,0,0-.18,2.24A.57.57,0,0,0,.24,28a.69.69,0,0,0-.11.17A3.73,3.73,0,0,0,0,29.26a2.94,2.94,0,0,0,.15,1.13.31.31,0,0,0,.08.11.67.67,0,0,0-.08.18,4.4,4.4,0,0,0,.21,2.24.27.27,0,0,0,.1.11.87.87,0,0,0-.08.19,4.42,4.42,0,0,0,.41,2.2.32.32,0,0,0,.1.1,1.36,1.36,0,0,0-.06.2,4.49,4.49,0,0,0,.6,2.16,1,1,0,0,0,.11.1.74.74,0,0,0,0,.19,4.33,4.33,0,0,0,.78,2.1.28.28,0,0,0,.13.09.39.39,0,0,0,0,.2,4.37,4.37,0,0,0,1,2,.28.28,0,0,0,.13.07,1.56,1.56,0,0,0,0,.2,4.47,4.47,0,0,0,1.14,1.94.46.46,0,0,0,.14.07,1.09,1.09,0,0,0,0,.19,4.49,4.49,0,0,0,1.3,1.83.27.27,0,0,0,.14,0,.6.6,0,0,0,0,.2,4.52,4.52,0,0,0,1.45,1.71.35.35,0,0,0,.14,0,.52.52,0,0,0,.06.2,4.34,4.34,0,0,0,1.59,1.57.27.27,0,0,0,.12,0h0a.43.43,0,0,0,.06.2,4.48,4.48,0,0,0,1.72,1.43h.15a.48.48,0,0,0,.09.19,4.44,4.44,0,0,0,1.84,1.27h.15a.74.74,0,0,0,.09.18A4.49,4.49,0,0,0,15.67,55h0a.23.23,0,0,0,.12,0,1,1,0,0,0,.11.17,4.48,4.48,0,0,0,2,.94h0a.37.37,0,0,0,.15,0,.43.43,0,0,0,.13.16,4.53,4.53,0,0,0,2,.76h.08a.21.21,0,0,0,.14,0,.69.69,0,0,0,.14.15,4.82,4.82,0,0,0,2,.59l.16,0a.37.37,0,0,0,.14-.06l.16.14a4.94,4.94,0,0,0,1.89.4,1.39,1.39,0,0,0,.32,0,.46.46,0,0,0,.14-.07.51.51,0,0,0,.16.12,4.38,4.38,0,0,0,1.6.26,2,2,0,0,0,.63-.08.26.26,0,0,0,.13-.08.48.48,0,0,0,.17.11,3.47,3.47,0,0,0,1.09.14h.05a3.07,3.07,0,0,0,1.11-.15l.12-.1a.53.53,0,0,0,.17.1,2.53,2.53,0,0,0,.62.06,4.2,4.2,0,0,0,1.62-.27.27.27,0,0,0,.11-.1.71.71,0,0,0,.19.08l.29,0a4.66,4.66,0,0,0,1.91-.42.53.53,0,0,0,.1-.12.8.8,0,0,0,.2.07h.12a4.46,4.46,0,0,0,2-.6A.47.47,0,0,0,38,57a1,1,0,0,0,.2,0h0a4.52,4.52,0,0,0,2.08-.78.21.21,0,0,0,.08-.12.72.72,0,0,0,.19,0h0a4.47,4.47,0,0,0,2-1,.31.31,0,0,0,.07-.14h.2a4.62,4.62,0,0,0,1.94-1.13.33.33,0,0,0,.06-.14h.2a4.49,4.49,0,0,0,1.83-1.3.3.3,0,0,0,0-.15l.2,0a4.44,4.44,0,0,0,1.7-1.46.25.25,0,0,0,0-.14.88.88,0,0,0,.2,0,4.61,4.61,0,0,0,1.57-1.6.27.27,0,0,0,0-.15.6.6,0,0,0,.2-.06,4.55,4.55,0,0,0,1.43-1.72.29.29,0,0,0,0-.16.71.71,0,0,0,.19-.08,4.41,4.41,0,0,0,1.27-1.84.42.42,0,0,0,0-.16l.18-.09a4.51,4.51,0,0,0,1.11-2,.25.25,0,0,0,0-.13,1,1,0,0,0,.17-.12,4.51,4.51,0,0,0,.94-2,.47.47,0,0,0,0-.14l.16-.13A4.35,4.35,0,0,0,57,38.17c0-.06,0-.11,0-.14a1.08,1.08,0,0,0,.15-.14,4.52,4.52,0,0,0,.57-2.18l-.06-.13a.88.88,0,0,0,.14-.15,4.47,4.47,0,0,0,.37-2.21.32.32,0,0,0-.07-.13.67.67,0,0,0,.12-.17,4.34,4.34,0,0,0,.18-2.24.2.2,0,0,0-.08-.12.59.59,0,0,0,.11-.17A3.4,3.4,0,0,0,58.53,29.31Zm-.66-3.48a4.46,4.46,0,0,1,.15,1.9,1,1,0,0,1-.19.3,9.51,9.51,0,0,1-.84.82l0,0h0a8.29,8.29,0,0,1-.89.71,0,0,0,0,1,0,0l-.2.13a.83.83,0,0,0,0-.15s0-.05,0-.07a2.14,2.14,0,0,1,0-1.7,8.49,8.49,0,0,0,2-2Zm-.41-2.48a4.51,4.51,0,0,1,.32,1.89,1.23,1.23,0,0,1-.17.3,8.26,8.26,0,0,1-.75.89,0,0,0,0,1,0,0l0,0,0,.05a10.39,10.39,0,0,1-.8.76h0v0c-.07,0-.12.09-.17.11a1.31,1.31,0,0,1-.05-.15.14.14,0,0,1,0-.07,2.18,2.18,0,0,1-.13-1.69h0a7.84,7.84,0,0,0,1.86-2.16Zm-.62-2.43a4.48,4.48,0,0,1,.48,1.84,1.12,1.12,0,0,1-.14.33,8.6,8.6,0,0,1-.67.94l0,0s0,.05-.06.08a10.64,10.64,0,0,1-.71.8h0s0,0,0,0h0l-.16.14L55.46,25l0-.07a2.14,2.14,0,0,1-.27-1.67,8.44,8.44,0,0,0,1.67-2.33ZM56,18.54a4.56,4.56,0,0,1,.64,1.8,1.18,1.18,0,0,1-.12.35,8.89,8.89,0,0,1-.56,1h0c-.26.39-.54.78-.74,1l-.17.18a.64.64,0,0,0-.08-.14l0-.06A2.25,2.25,0,0,1,54.53,21a4.58,4.58,0,0,0,.76-1A11.13,11.13,0,0,0,56,18.55,0,0,0,0,1,56,18.54Zm-1-2.29A4.36,4.36,0,0,1,55.76,18a1,1,0,0,1-.07.34h0a8.08,8.08,0,0,1-.48,1l0,0v0h0a9.9,9.9,0,0,1-.62,1h0a.61.61,0,0,1-.14.17l-.08-.13,0-.06a2.16,2.16,0,0,1-.55-1.6A8.49,8.49,0,0,0,55,16.26,0,0,0,0,1,55,16.25Zm-1.23-2.19a4.68,4.68,0,0,1,.94,1.67,1.25,1.25,0,0,1,0,.34,9.87,9.87,0,0,1-.38,1v0s0,0,0,.05,0,0,0,0a9,9,0,0,1-.52,1.07h0c-.06.08-.09.14-.13.18a.94.94,0,0,0-.09-.12l-.05-.05a2.16,2.16,0,0,1-.69-1.56,8.57,8.57,0,0,0,1-2.67ZM52.31,12v0a4.65,4.65,0,0,1,1.09,1.58.93.93,0,0,1,0,.35,7.8,7.8,0,0,1-.3,1.14s0,0,0,0c-.14.41-.3.82-.43,1.1h0a1.3,1.3,0,0,1-.12.21.94.94,0,0,1-.1-.1l-.05-.06a2.12,2.12,0,0,1-.83-1.47A8.57,8.57,0,0,0,52.31,12Zm-1.59-1.94v0a4.52,4.52,0,0,1,1.21,1.47.81.81,0,0,1,0,.36h0A6.5,6.5,0,0,1,51.74,13v0c-.1.43-.23.86-.33,1.15h0l-.08.19-.12-.11-.06,0a2.13,2.13,0,0,1-1-1.41A8.69,8.69,0,0,0,50.72,10.06ZM49,8.26h0a4.27,4.27,0,0,1,1.35,1.36.88.88,0,0,1,0,.35,8.31,8.31,0,0,1-.11,1.1v0s0,0,0,0c-.07.43-.15.87-.23,1.16h0v0h0a.84.84,0,0,1-.07.19l-.12-.09-.06,0a2.13,2.13,0,0,1-1.07-1.32A8.6,8.6,0,0,0,49,8.26Zm-1.9-1.63v0a4.59,4.59,0,0,1,1.46,1.24,1.29,1.29,0,0,1,.07.34,7.43,7.43,0,0,1,0,1.16h0s0,0,0,0h0c0,.44-.07.88-.12,1.17v0h0c0,.08,0,.15,0,.19l-.14-.08-.06,0A2.15,2.15,0,0,1,47,9.47,8.73,8.73,0,0,0,47.06,6.63ZM45,5.15a4.3,4.3,0,0,1,1.56,1.11.75.75,0,0,1,.1.32,6.67,6.67,0,0,1,.1,1.1v.1a10.22,10.22,0,0,1,0,1.16V9h0a1.57,1.57,0,0,1,0,.24l-.14-.07-.07,0A2.16,2.16,0,0,1,45.23,8h0A8.2,8.2,0,0,0,45,5.16ZM42.85,3.86a4.49,4.49,0,0,1,1.66,1,1.11,1.11,0,0,1,.13.33,9.14,9.14,0,0,1,.2,1.19.06.06,0,0,1,0,0c0,.41.07.82.07,1.11v0h0a1.48,1.48,0,0,1,0,.22l-.14,0s-.05,0-.08,0a2.18,2.18,0,0,1-1.38-1,8.11,8.11,0,0,0-.46-2.82ZM40.59,2.77a4.42,4.42,0,0,1,1.73.83,1.06,1.06,0,0,1,.16.31A9.7,9.7,0,0,1,42.78,5v0h0A11.64,11.64,0,0,1,43,6.26h0v.23l-.15,0-.06,0a2.16,2.16,0,0,1-1.47-.88,8,8,0,0,0-.7-2.75Zm-2.35-.88A4.21,4.21,0,0,1,40,2.56a.88.88,0,0,1,.19.29,8.08,8.08,0,0,1,.38,1.07h0a0,0,0,0,0,0,0,.43.43,0,0,0,0,0,10.28,10.28,0,0,1,.28,1.14h0v0a1.81,1.81,0,0,1,0,.19l-.16,0h-.07a2.2,2.2,0,0,1-1.53-.75,8.3,8.3,0,0,0-.94-2.68ZM35.82,1.2a4.6,4.6,0,0,1,1.84.52,1.07,1.07,0,0,1,.22.28c.14.25.3.62.46,1h0a.21.21,0,0,0,0,.06h0a10.38,10.38,0,0,1,.39,1.14v0h0c0,.08,0,.14,0,.19h-.23A2.2,2.2,0,0,1,37,3.82a8.5,8.5,0,0,0-1.18-2.59ZM33.35.75a4.3,4.3,0,0,1,1.88.34,1,1,0,0,1,.23.26,8.23,8.23,0,0,1,.57,1s0,0,0,0h0a11.74,11.74,0,0,1,.5,1.12h0v0a.89.89,0,0,1,.07.19h-.24a2.26,2.26,0,0,1-1.63-.46,8.18,8.18,0,0,0-1.4-2.5Zm-.6-.07A.83.83,0,0,1,33,.93a7,7,0,0,1,.63.89l.06.1c.24.39.45.78.58,1.05h0l.08.19h-.23a2.24,2.24,0,0,1-1.67-.32,4.43,4.43,0,0,0-.61-1.12,9.46,9.46,0,0,0-1-1.24s0,0,0,0A4.65,4.65,0,0,1,32.75.68Zm-2.5-.2a.75.75,0,0,1,.27.22,7.39,7.39,0,0,1,.73.88h0a11.19,11.19,0,0,1,.68,1h0a2.19,2.19,0,0,1,.11.19l-.16,0-.07,0a2.19,2.19,0,0,1-1.69-.18A8.23,8.23,0,0,0,28.34.49h0s0,0,0,0A4.44,4.44,0,0,1,30.25.48ZM27.73.5A.87.87,0,0,1,28,.69a7.89,7.89,0,0,1,.81.82h0a8.47,8.47,0,0,1,.77,1,1,1,0,0,1,.13.2.8.8,0,0,0-.15,0l-.07,0a2.19,2.19,0,0,1-1.7,0,8.31,8.31,0,0,0-2-2,0,0,0,0,1,0,0A4.45,4.45,0,0,1,27.73.5ZM25.24.75a.88.88,0,0,1,.3.16,9.66,9.66,0,0,1,.89.76l0,0a0,0,0,0,1,0,0h0a8.66,8.66,0,0,1,.81.85h0l0,0c0,.06.09.11.11.17l-.15,0-.07,0a2.1,2.1,0,0,1-1.69.12,8.57,8.57,0,0,0-2.16-1.87h0A4.39,4.39,0,0,1,25.24.75Zm-2.48.45a1.12,1.12,0,0,1,.33.14h0A8.78,8.78,0,0,1,24,2l0,0a10.77,10.77,0,0,1,.92.8h0l.15.17a.67.67,0,0,0-.15.06l-.06,0a2.11,2.11,0,0,1-1.67.28A8.29,8.29,0,0,0,20.92,1.7h0A4.64,4.64,0,0,1,22.76,1.2Zm-2.42.68a1,1,0,0,1,.34.11h0a6.63,6.63,0,0,1,1,.57,10.08,10.08,0,0,1,1,.74,1.49,1.49,0,0,1,.18.17l-.14.07-.06,0A2.21,2.21,0,0,1,21,4a4.79,4.79,0,0,0-1-.74,9.65,9.65,0,0,0-1.44-.72h0A4.41,4.41,0,0,1,20.34,1.88ZM18,2.76a1,1,0,0,1,.34.09h0a8.52,8.52,0,0,1,1.16.56h0a7,7,0,0,1,.93.57h0a1.63,1.63,0,0,1,.18.14l-.13.09-.06,0a2.22,2.22,0,0,1-1.61.56,8.05,8.05,0,0,0-2.58-1.24h0A4.38,4.38,0,0,1,18,2.76ZM15.73,3.85a.72.72,0,0,1,.33,0c.28.08.67.23,1.07.39a12.66,12.66,0,0,1,1.16.57l.18.11-.12.11-.05,0a2.17,2.17,0,0,1-1.56.7,8.09,8.09,0,0,0-2.67-1A4.3,4.3,0,0,1,15.73,3.85ZM13.56,5.12a.89.89,0,0,1,.35,0h0a10.11,10.11,0,0,1,1.14.31h0c.41.14.82.29,1.1.42l.22.12-.11.12-.05,0A2.18,2.18,0,0,1,14.75,7,8.81,8.81,0,0,0,12,6.21h0A4.5,4.5,0,0,1,13.56,5.12ZM11.51,6.58a1.35,1.35,0,0,1,.37,0A9.69,9.69,0,0,1,13,6.78a10.48,10.48,0,0,1,1.15.34,1,1,0,0,1,.23.1l-.11.11,0,0a2.14,2.14,0,0,1-1.41,1,8.26,8.26,0,0,0-2.8-.52h0A4.34,4.34,0,0,1,11.51,6.58ZM9.61,8.21a1,1,0,0,1,.35,0,8.82,8.82,0,0,1,1.13.1,9.94,9.94,0,0,1,1.24.25h0a1.17,1.17,0,0,1,.2.06l-.09.13,0,.06a2.17,2.17,0,0,1-1.33,1.06,8.31,8.31,0,0,0-2.83-.27h0A4.37,4.37,0,0,1,9.61,8.21ZM7.85,10a.81.81,0,0,1,.35-.07,8.38,8.38,0,0,1,1.22,0,8.48,8.48,0,0,1,1.18.13h0a.48.48,0,0,1,.19.05l-.08.13,0,.06a2.23,2.23,0,0,1-1.22,1.19,8.32,8.32,0,0,0-2.86,0h0A4.34,4.34,0,0,1,7.85,10ZM6.25,12a.83.83,0,0,1,.34-.11,9,9,0,0,1,1.16-.09h0a10.37,10.37,0,0,1,1.15,0H9l.27,0s0,.09-.07.14a.21.21,0,0,1,0,.06A2.18,2.18,0,0,1,8,13.3a8,8,0,0,0-2.85.21h0A4.27,4.27,0,0,1,6.25,12ZM4.83,14a1,1,0,0,1,.33-.13h0a9.32,9.32,0,0,1,1.2-.2h0a10.44,10.44,0,0,1,1.14-.07h.24a1.56,1.56,0,0,1-.06.15.14.14,0,0,0,0,.07,2.16,2.16,0,0,1-1,1.37,8.41,8.41,0,0,0-2.83.46h0A4.51,4.51,0,0,1,4.83,14ZM3.6,16.2a1,1,0,0,1,.31-.15A7.45,7.45,0,0,1,5,15.76h.08c.44-.08.88-.15,1.19-.18h.23a.42.42,0,0,0,0,.15s0,.05,0,.08a2.16,2.16,0,0,1-.88,1.45,8.17,8.17,0,0,0-2.76.71h0A4.52,4.52,0,0,1,3.6,16.2ZM2.55,18.49a1.36,1.36,0,0,1,.3-.18A7.83,7.83,0,0,1,4,17.91H4a0,0,0,0,0,0,0h.08c.4-.11.78-.2,1.06-.26h0l.22,0,0,.15a.17.17,0,0,1,0,.07,2.15,2.15,0,0,1-.74,1.53,8.13,8.13,0,0,0-2.7.95h0A4.59,4.59,0,0,1,2.55,18.49Zm-.83,2.37A.79.79,0,0,1,2,20.65a10.32,10.32,0,0,1,1-.47h0a11.73,11.73,0,0,1,1.17-.4h0l.19,0c0,.05,0,.11,0,.16a.25.25,0,0,1,0,.08,2.15,2.15,0,0,1-.61,1.58,8.64,8.64,0,0,0-2.6,1.18h0A4.46,4.46,0,0,1,1.72,20.86Zm-.64,2.43a1.9,1.9,0,0,1,.27-.23,9.85,9.85,0,0,1,1-.57H2.4l.09,0h0a9.45,9.45,0,0,1,1-.41h0a1.63,1.63,0,0,0,.23-.07v.24a2.18,2.18,0,0,1-.47,1.62,8.59,8.59,0,0,0-2.5,1.41h0A4.47,4.47,0,0,1,1.08,23.29Zm-.4,2.49a.67.67,0,0,1,.24-.26,7.94,7.94,0,0,1,.9-.64.05.05,0,0,0,0,0h0a9.94,9.94,0,0,1,1.05-.58H3l.22-.1c0,.06,0,.11,0,.16v.08a2.19,2.19,0,0,1-.32,1.67,8,8,0,0,0-2.36,1.6h0A4.44,4.44,0,0,1,.68,25.78Zm-.2,2.5A.94.94,0,0,1,.69,28a8.93,8.93,0,0,1,.9-.74h0v0h0a10.55,10.55,0,0,1,1-.66,1.36,1.36,0,0,1,.2-.11l0,.16s0,0,0,.07a2.2,2.2,0,0,1-.18,1.69,7.69,7.69,0,0,0-2.2,1.81h0A4.39,4.39,0,0,1,.48,28.28ZM.66,32.7A4.35,4.35,0,0,1,.5,30.79a1.26,1.26,0,0,1,.2-.3,8.29,8.29,0,0,1,.84-.83l.05,0c.32-.28.65-.55.89-.72h0l.2-.13a.76.76,0,0,0,0,.16.14.14,0,0,1,0,.07,2.14,2.14,0,0,1,0,1.7,8.3,8.3,0,0,0-2,2Zm.41,2.48A4.25,4.25,0,0,1,.75,33.3.77.77,0,0,1,.92,33a8,8,0,0,1,.73-.88l.06-.05a10.34,10.34,0,0,1,.85-.82h0s0,0,0,0h0l.15-.1.06.14a.25.25,0,0,1,0,.07A2.19,2.19,0,0,1,3,33h0a8.51,8.51,0,0,0-1.87,2.18Zm.62,2.43a4.48,4.48,0,0,1-.49-1.85,1.09,1.09,0,0,1,.14-.32A10.23,10.23,0,0,1,2,34.5v0H2a9.91,9.91,0,0,1,.79-.89h0A1.14,1.14,0,0,1,3,33.4l.06.14a.21.21,0,0,0,0,.07,2.14,2.14,0,0,1,.27,1.67A8.8,8.8,0,0,0,1.7,37.6ZM2.52,40a4.51,4.51,0,0,1-.64-1.81A.89.89,0,0,1,2,37.85a8.26,8.26,0,0,1,.56-1,0,0,0,0,1,0,0,10.38,10.38,0,0,1,.73-1v0l.17-.17a.61.61,0,0,0,.07.14s0,0,0,.06A2.19,2.19,0,0,1,4,37.52a4.12,4.12,0,0,0-.75,1A10,10,0,0,0,2.53,40Zm1,2.28a4.32,4.32,0,0,1-.8-1.74,1.3,1.3,0,0,1,.08-.34c.11-.28.3-.67.5-1v0a10.46,10.46,0,0,1,.62-1H4a1,1,0,0,1,.14-.18l.09.13a.15.15,0,0,1,0,.06,2.14,2.14,0,0,1,.55,1.6,8.21,8.21,0,0,0-1.23,2.57Zm1.23,2.2a4.55,4.55,0,0,1-1-1.67,1,1,0,0,1,.05-.34h0a10.92,10.92,0,0,1,.38-1.05h0l0-.06c.18-.42.38-.82.52-1.08h0a0,0,0,0,0,0,0v0l.1-.15.11.12s0,0,0,0a2.15,2.15,0,0,1,.7,1.56,7.89,7.89,0,0,0-1,2.67Zm1.42,2.06h0A4.38,4.38,0,0,1,5.12,45a.81.81,0,0,1,0-.36,9.36,9.36,0,0,1,.29-1.12,0,0,0,0,0,0,0v0a9.36,9.36,0,0,1,.41-1.07h0L6,42.13l.11.11,0,0A2.2,2.2,0,0,1,7,43.78,8.34,8.34,0,0,0,6.21,46.53Zm1.6,1.94v0A4.38,4.38,0,0,1,6.58,47a1.05,1.05,0,0,1,0-.36,8.19,8.19,0,0,1,.2-1.17s0,0,0,0h0c.11-.42.22-.82.32-1.09h0c0-.08.06-.16.09-.21l.12.1,0,0a2.17,2.17,0,0,1,1,1.41A8,8,0,0,0,7.81,48.47Zm1.76,1.79v0a4.6,4.6,0,0,1-1.35-1.36,1.36,1.36,0,0,1,0-.36,8.53,8.53,0,0,1,.1-1.13.11.11,0,0,0,0,0,0,0,0,0,0,0,0h0v0a10.48,10.48,0,0,1,.21-1,0,0,0,0,1,0,0v0h0s0,0,0,0h0A1.71,1.71,0,0,1,8.59,46l.13.1s0,0,.06,0a2.17,2.17,0,0,1,1.07,1.32A8.06,8.06,0,0,0,9.57,50.26Zm1.9,1.66h0A4.34,4.34,0,0,1,10,50.68a.86.86,0,0,1-.07-.36,7.68,7.68,0,0,1,0-1.18h0a.43.43,0,0,0,0,0A9.38,9.38,0,0,1,10.07,48v0h0a1.06,1.06,0,0,1,0-.19l.14.08.06,0a2.19,2.19,0,0,1,1.19,1.22A7.89,7.89,0,0,0,11.47,51.92Zm2,1.47A4.6,4.6,0,0,1,12,52.28a.84.84,0,0,1-.11-.35h0a8.48,8.48,0,0,1-.09-1.13v-.16c0-.38,0-.75,0-1h0v0h0a1.42,1.42,0,0,1,0-.27l.14.07.06,0a2.25,2.25,0,0,1,1.29,1.12,8.16,8.16,0,0,0,.21,2.84Zm-1.34-4.32-.32-.15a2.52,2.52,0,0,0-1.34-1.41,3,3,0,0,1-.3-.19A2.54,2.54,0,0,0,9,45.8l-.28-.2A2.51,2.51,0,0,0,7.62,44l-.26-.23A2.54,2.54,0,0,0,6.43,42l-.24-.25A2.58,2.58,0,0,0,5.4,40l-.22-.27a2.52,2.52,0,0,0-.62-1.85c-.07-.09-.14-.2-.2-.29a2.6,2.6,0,0,0-.46-1.89c-.06-.11-.11-.22-.17-.31a2.53,2.53,0,0,0-.3-1.93c0-.11-.09-.22-.14-.33a2.52,2.52,0,0,0-.12-1.94,3.19,3.19,0,0,1-.11-.33,2.54,2.54,0,0,0,0-2c0-.12-.06-.23-.08-.33a2.51,2.51,0,0,0,.21-1.94c0-.13,0-.24,0-.35a2.58,2.58,0,0,0,.38-1.92c0-.12,0-.24,0-.34a2.54,2.54,0,0,0,.56-1.87c0-.13,0-.25,0-.36A2.51,2.51,0,0,0,4.8,20c0-.12,0-.24,0-.36a2.54,2.54,0,0,0,.87-1.74,3.43,3.43,0,0,1,.06-.34,2.53,2.53,0,0,0,1-1.67c0-.12.07-.23.11-.33A2.61,2.61,0,0,0,8,14l.12-.32a2.54,2.54,0,0,0,1.29-1.47l.16-.32A2.52,2.52,0,0,0,11,10.51l.17-.29A2.58,2.58,0,0,0,12.72,9c.08-.09.14-.2.22-.28a2.59,2.59,0,0,0,1.62-1.09l.22-.26a2.56,2.56,0,0,0,1.72-.93,3,3,0,0,1,.25-.25h.08a2.6,2.6,0,0,0,1.7-.79c.1-.07.18-.15.27-.22l.26,0a2.85,2.85,0,0,0,1.6-.64l.28-.2a2.18,2.18,0,0,0,.43,0,2.94,2.94,0,0,0,1.47-.51l.31-.17a2,2,0,0,0,.57.09,3.18,3.18,0,0,0,1.35-.38l.33-.15a1.66,1.66,0,0,0,.74.15,3.57,3.57,0,0,0,1.2-.27l.33-.11a2,2,0,0,0,.91.22,3.77,3.77,0,0,0,1-.18L30,3a1.92,1.92,0,0,0,1.1.31,4.38,4.38,0,0,0,.83-.1l.35,0a2.06,2.06,0,0,0,1.34.42,5.1,5.1,0,0,0,.57,0l.35,0a2.56,2.56,0,0,0,1.87.56h.36a2.51,2.51,0,0,0,1.81.71l.34,0a2.51,2.51,0,0,0,1.75.88,3.17,3.17,0,0,1,.35.06,2.51,2.51,0,0,0,1.66,1l.34.11A2.6,2.6,0,0,0,44.56,8l.34.13a2.49,2.49,0,0,0,1.45,1.28,2.4,2.4,0,0,1,.32.17A2.58,2.58,0,0,0,48,11l.3.18a2.61,2.61,0,0,0,1.21,1.53l.29.2a2.6,2.6,0,0,0,1.07,1.63,1.55,1.55,0,0,1,.27.23,2.61,2.61,0,0,0,.94,1.71,2.83,2.83,0,0,1,.24.25,2.57,2.57,0,0,0,.78,1.78l.23.27A2.53,2.53,0,0,0,54,20.66c.07.09.14.2.2.29a2.51,2.51,0,0,0,.46,1.89c.06.1.11.21.16.3a2.57,2.57,0,0,0,.3,1.93l.14.32a2.53,2.53,0,0,0,.13,1.95,2.55,2.55,0,0,0,.11.33,2.54,2.54,0,0,0,0,1.95c0,.12.06.24.08.35a2.48,2.48,0,0,0-.21,1.93c0,.12,0,.24.05.35A2.47,2.47,0,0,0,55,34.16c0,.12,0,.24,0,.35a2.63,2.63,0,0,0-.54,1.87c0,.12,0,.24,0,.36a2.5,2.5,0,0,0-.7,1.81c0,.12,0,.23,0,.34a2.55,2.55,0,0,0-.86,1.75c0,.13,0,.24-.07.35a2.56,2.56,0,0,0-1,1.66,2.79,2.79,0,0,1-.09.34,2.53,2.53,0,0,0-1.15,1.57c-.05.11-.08.23-.13.33a2.62,2.62,0,0,0-1.29,1.46c0,.12-.1.22-.15.32A2.5,2.5,0,0,0,47.51,48a2.08,2.08,0,0,1-.19.29,2.61,2.61,0,0,0-1.52,1.22l-.21.29A2.55,2.55,0,0,0,44,50.89a3.23,3.23,0,0,1-.23.27A2.55,2.55,0,0,0,42,52.1l-.25.24a2.6,2.6,0,0,0-1.79.78l-.27.23a2.51,2.51,0,0,0-1.85.62l-.29.2a2.51,2.51,0,0,0-1.89.46l-.31.16a2.57,2.57,0,0,0-1.93.3l-.32.14a2.53,2.53,0,0,0-2,.13l-.33.11a2.54,2.54,0,0,0-2,0c-.12,0-.22.06-.33.07a2.55,2.55,0,0,0-1.94-.2l-.35.05A2.46,2.46,0,0,0,24.36,55L24,55a2.57,2.57,0,0,0-1.86-.55h-.36A2.57,2.57,0,0,0,20,53.72l-.36,0a2.57,2.57,0,0,0-1.74-.86l-.35-.07a2.54,2.54,0,0,0-1.66-1,3.37,3.37,0,0,1-.34-.09A2.53,2.53,0,0,0,14,50.49l-.32-.12A2.59,2.59,0,0,0,12.17,49.07Zm3.5,5.59a4.29,4.29,0,0,1-1.65-1,1.11,1.11,0,0,1-.13-.33,8.87,8.87,0,0,1-.21-1.2v0A10.94,10.94,0,0,1,13.6,51h0a1.27,1.27,0,0,1,0-.22l.15.06h.07a2.16,2.16,0,0,1,1.37,1,8.34,8.34,0,0,0,.46,2.81Zm2.27,1.09a4.43,4.43,0,0,1-1.74-.82,1.26,1.26,0,0,1-.15-.31,9.93,9.93,0,0,1-.3-1.13s0,0,0,0v0h0c-.08-.41-.15-.85-.18-1.13a2.45,2.45,0,0,1,0-.25l.15,0,.07,0a2.21,2.21,0,0,1,1.46.86,8.27,8.27,0,0,0,.71,2.78Zm2.35.89A4.5,4.5,0,0,1,18.5,56a.78.78,0,0,1-.19-.31,7.65,7.65,0,0,1-.41-1.14h0s0,0,0,0c-.12-.41-.21-.81-.27-1.09v0s0,0,0,0a2,2,0,0,1,0-.22l.15,0,.07,0a2.15,2.15,0,0,1,1.53.74,8.2,8.2,0,0,0,.95,2.7Zm.57.17a.9.9,0,0,1-.21-.28,9.47,9.47,0,0,1-.47-1h0l0,0h0v0c-.16-.4-.31-.83-.39-1.11v0c0-.09,0-.16-.05-.22h.23a2.16,2.16,0,0,1,1.59.61,8.72,8.72,0,0,0,1.17,2.6v0A4.46,4.46,0,0,1,20.86,56.81Zm4.32,1a4.4,4.4,0,0,1-1.88-.34,1,1,0,0,1-.24-.26c-.16-.24-.37-.61-.57-1a.08.08,0,0,1,0,0L22.4,56a7.43,7.43,0,0,1-.39-.9h0s0,0,0,0h0v0c0-.08,0-.14-.06-.19h.23a2.19,2.19,0,0,1,1.63.47,8.28,8.28,0,0,0,1.41,2.48Zm2.49.25a4.44,4.44,0,0,1-1.9-.18.87.87,0,0,1-.25-.24,9,9,0,0,1-.64-.9.43.43,0,0,0,0-.05s0,0,0,0a8.49,8.49,0,0,1-.56-1v0h0c0-.08-.07-.15-.09-.2l.16,0h.08a2.13,2.13,0,0,1,1.66.32h0A8.39,8.39,0,0,0,27.67,58Zm2.52,0a4.26,4.26,0,0,1-1.91,0,.79.79,0,0,1-.28-.21,10,10,0,0,1-.73-.88,0,0,0,0,0,0,0,.24.24,0,0,1-.06-.08h0c-.24-.33-.47-.67-.61-.91,0,0,0,0,0,0s-.08-.16-.11-.22a.47.47,0,0,0,.16,0h.07a2.19,2.19,0,0,1,1.69.17A8.21,8.21,0,0,0,30.19,58Zm2.51-.19a4.51,4.51,0,0,1-1.91.15,1,1,0,0,1-.29-.19c-.21-.18-.49-.46-.76-.74a.05.05,0,0,0,0,0L29.66,57h0l0,0c-.27-.32-.53-.63-.7-.87h0v0h0l-.13-.19.16,0,.07,0a2.18,2.18,0,0,1,1.7,0,8.05,8.05,0,0,0,2,2Zm.59-.09a1.24,1.24,0,0,1-.31-.17,7.38,7.38,0,0,1-.88-.75s0,0-.05,0,0,0,0,0a0,0,0,0,0,0,0h0a8.26,8.26,0,0,1-.73-.75h0v0h0l-.11-.17.14-.05.07,0A2.19,2.19,0,0,1,33,55.58a4.23,4.23,0,0,0,.89.92,9.78,9.78,0,0,0,1.28,1h0A4.41,4.41,0,0,1,33.29,57.78Zm2.47-.46a1.09,1.09,0,0,1-.32-.14,8.23,8.23,0,0,1-1-.67v0h0a0,0,0,0,0,0,0l0,0,0,0h0s0,0,0,0h0a7.29,7.29,0,0,1-.78-.68v0h0l-.16-.17.15-.07.07,0a2.14,2.14,0,0,1,1.67-.27,8.22,8.22,0,0,0,2.32,1.67,0,0,0,0,1,0,0A4.53,4.53,0,0,1,35.76,57.32Zm2.42-.67a1,1,0,0,1-.33-.12h0a7.51,7.51,0,0,1-1-.58h0c-.36-.26-.72-.52-1-.72h0a1.56,1.56,0,0,1-.18-.17l.14-.08.06,0a2.24,2.24,0,0,1,1.65-.42,4.09,4.09,0,0,0,1,.76A12.61,12.61,0,0,0,40,56h0A4.67,4.67,0,0,1,38.18,56.65Zm2.36-.88a1,1,0,0,1-.35-.09,9.9,9.9,0,0,1-1.08-.51l-.06,0h0l0,0c-.36-.19-.7-.4-.93-.55,0,0,0,0,0,0a.72.72,0,0,1-.19-.14l.14-.08s0,0,0,0a2.17,2.17,0,0,1,1.61-.55A8.54,8.54,0,0,0,42.26,55h0A4.48,4.48,0,0,1,40.54,55.77Zm2.26-1.09a.94.94,0,0,1-.34,0h0c-.28-.08-.67-.23-1.06-.39l-.07,0,0,0a9.63,9.63,0,0,1-1-.51h0a.78.78,0,0,1-.19-.13l.12-.09a.07.07,0,0,1,0,0,2.15,2.15,0,0,1,1.56-.7,8.33,8.33,0,0,0,2.67,1h0A4.54,4.54,0,0,1,42.8,54.68ZM45,53.41a1.14,1.14,0,0,1-.35,0,8,8,0,0,1-1.14-.31h0a10.19,10.19,0,0,1-1.1-.43h0l-.22-.12.11-.1,0-.05a2.18,2.18,0,0,1,1.48-.83,8.35,8.35,0,0,0,2.76.77h0A4.39,4.39,0,0,1,45,53.41Zm2-1.47a.77.77,0,0,1-.35,0h0a8.34,8.34,0,0,1-1.11-.19h-.06a8.88,8.88,0,0,1-1.13-.33h0l-.2-.09.1-.12a.12.12,0,0,1,0-.05,2.18,2.18,0,0,1,1.41-1,8.22,8.22,0,0,0,2.81.54h0A4.36,4.36,0,0,1,47,51.94Zm1.91-1.63a.92.92,0,0,1-.35,0,10.61,10.61,0,0,1-1.1-.1h0c-.46-.07-.92-.15-1.22-.23h0a0,0,0,0,0,0,0h0L46,49.94l.09-.13,0-.06a2.18,2.18,0,0,1,1.33-1.07,7.33,7.33,0,0,0,2.33.3,4.18,4.18,0,0,0,.51,0h0A4.57,4.57,0,0,1,48.92,50.31Zm1.76-1.79a1,1,0,0,1-.35.07,7.31,7.31,0,0,1-1.15,0h0s0,0,0,0c-.45,0-.89-.07-1.18-.12H47.9l-.19-.05a1,1,0,0,0,.08-.14l0,0A2.12,2.12,0,0,1,49.06,47a4.29,4.29,0,0,0,1.33.14,10.11,10.11,0,0,0,1.52-.1h0A4.59,4.59,0,0,1,50.68,48.52Zm1.6-1.94a.87.87,0,0,1-.35.1,7.43,7.43,0,0,1-1.18.1h0a9.63,9.63,0,0,1-1.12,0l-.27,0a.69.69,0,0,1,.07-.15l0-.07a2.21,2.21,0,0,1,1.11-1.28,2.2,2.2,0,0,0,.6.06A10.4,10.4,0,0,0,53.36,45h0A4.52,4.52,0,0,1,52.28,46.58Zm1.42-2.07a1.2,1.2,0,0,1-.34.13,7.07,7.07,0,0,1-1.16.2h-.06c-.41,0-.84.07-1.12.07h-.26a.88.88,0,0,1,.05-.15.64.64,0,0,0,0-.07,2.22,2.22,0,0,1,1-1.38,1,1,0,0,0,.26,0,10,10,0,0,0,2.56-.49h0A4.46,4.46,0,0,1,53.7,44.51Zm1.23-2.19a1.06,1.06,0,0,1-.31.16h0a9.18,9.18,0,0,1-1.12.3h-.1a11,11,0,0,1-1.12.18H52a1.13,1.13,0,0,1,0-.15.14.14,0,0,1,0-.06A2.19,2.19,0,0,1,53,41.29h.11a9.29,9.29,0,0,0,2.66-.71h0A4.39,4.39,0,0,1,54.93,42.32ZM56,40a1.12,1.12,0,0,1-.28.18,9.64,9.64,0,0,1-1.1.39h-.08a7.49,7.49,0,0,1-1.13.27h0l-.22,0,0-.16s0-.05,0-.07a2.19,2.19,0,0,1,.74-1.53h0a8.46,8.46,0,0,0,2.68-.94h0A4.49,4.49,0,0,1,56,40Zm.84-2.38a.9.9,0,0,1-.28.21,8.48,8.48,0,0,1-1.07.5h0a10.22,10.22,0,0,1-1.12.39h0l-.24.05c0-.05,0-.11,0-.16a.15.15,0,0,0,0-.07A2.2,2.2,0,0,1,54.71,37a8.33,8.33,0,0,0,2.59-1.17h0A4.25,4.25,0,0,1,56.81,37.66Zm.63-2.43a1,1,0,0,1-.26.23,8.94,8.94,0,0,1-1,.59l0,0c-.41.2-.82.38-1.09.48h0a0,0,0,0,0,0,0l-.19.06v-.24a2.26,2.26,0,0,1,.46-1.63,8.15,8.15,0,0,0,2.49-1.4h0A4.42,4.42,0,0,1,57.44,35.23Zm.41-2.48a1,1,0,0,1-.23.25c-.22.18-.54.4-.89.63h0l-.06,0a10.87,10.87,0,0,1-1.06.58s0,0,0,0h0l-.2.08,0-.15a.19.19,0,0,0,0-.08,2.17,2.17,0,0,1,.33-1.66h0A8.08,8.08,0,0,0,58,30.85h0A4.64,4.64,0,0,1,57.85,32.75Zm.19-2.5a.82.82,0,0,1-.21.27h0a7.72,7.72,0,0,1-.9.75h0l0,0,0,0a9.93,9.93,0,0,1-.93.62h0a1.72,1.72,0,0,1-.22.12l0-.16s0,0,0-.07a2.19,2.19,0,0,1,.17-1.69A8.41,8.41,0,0,0,58,28.34h0A4.3,4.3,0,0,1,58,30.25Z"/><path class="cls-1" d="M31,29.54l5.67-3.28V24.63l-1.45-.85-5.65,3.27a.64.64,0,0,1-.27.07.59.59,0,0,1-.26-.07l-5.65-3.27-1.46.85v1.63l5.67,3.28a.22.22,0,0,1,.12.2v3.47s0,0-.08,0l-4.27-2.46-1.44.85v1.73L29,37.48a.62.62,0,0,0,.26.06.58.58,0,0,0,.26-.06l7.11-4.12V31.63l-1.44-.85-4.27,2.46s-.08,0-.08,0V29.74A.24.24,0,0,1,31,29.54Zm0,0,5.67-3.28V24.63l-1.45-.85-5.65,3.27a.64.64,0,0,1-.27.07.59.59,0,0,1-.26-.07l-5.65-3.27-1.46.85v1.63l5.67,3.28a.22.22,0,0,1,.12.2v3.47s0,0-.08,0l-4.27-2.46-1.44.85v1.73L29,37.48a.62.62,0,0,0,.26.06.58.58,0,0,0,.26-.06l7.11-4.12V31.63l-1.44-.85-4.27,2.46s-.08,0-.08,0V29.74A.24.24,0,0,1,31,29.54ZM28.57,43.39a.17.17,0,0,0-.13,0,.21.21,0,0,0-.12,0,.23.23,0,0,0-.05.15V44c0,.14.06.2.17.2s.19-.06.19-.2v-.44A.19.19,0,0,0,28.57,43.39ZM31,29.54l5.67-3.28V24.63l-1.45-.85-5.65,3.27a.64.64,0,0,1-.27.07.59.59,0,0,1-.26-.07l-5.65-3.27-1.46.85v1.63l5.67,3.28a.22.22,0,0,1,.12.2v3.47s0,0-.08,0l-4.27-2.46-1.44.85v1.73L29,37.48a.62.62,0,0,0,.26.06.58.58,0,0,0,.26-.06l7.11-4.12V31.63l-1.44-.85-4.27,2.46s-.08,0-.08,0V29.74A.24.24,0,0,1,31,29.54Zm0,0,5.67-3.28V24.63l-1.45-.85-5.65,3.27a.64.64,0,0,1-.27.07.59.59,0,0,1-.26-.07l-5.65-3.27-1.46.85v1.63l5.67,3.28a.22.22,0,0,1,.12.2v3.47s0,0-.08,0l-4.27-2.46-1.44.85v1.73L29,37.48a.62.62,0,0,0,.26.06.58.58,0,0,0,.26-.06l7.11-4.12V31.63l-1.44-.85-4.27,2.46s-.08,0-.08,0V29.74A.24.24,0,0,1,31,29.54ZM28.57,43.39a.17.17,0,0,0-.13,0,.21.21,0,0,0-.12,0,.23.23,0,0,0-.05.15V44c0,.14.06.2.17.2s.19-.06.19-.2v-.44A.19.19,0,0,0,28.57,43.39Zm.69-31A16.93,16.93,0,1,0,46.19,29.27,16.94,16.94,0,0,0,29.26,12.34Zm-3.47,6.09,3.1-1.79a.77.77,0,0,1,.75,0l3.09,1.79a.13.13,0,0,1,0,.22l-3,1.71a1,1,0,0,1-1,0l-3-1.71A.14.14,0,0,1,25.79,18.43Zm1.63,26.13H26.16v-.4l.6-.47c.13-.09.19-.18.19-.25s-.06-.15-.17-.15a.16.16,0,0,0-.18.18h-.44a.51.51,0,0,1,.19-.43.59.59,0,0,1,.43-.16.63.63,0,0,1,.43.15.48.48,0,0,1,.19.4.52.52,0,0,1-.12.3A2.6,2.6,0,0,1,27,44l-.24.17h.66ZM29.07,44a.59.59,0,0,1-.19.45.63.63,0,0,1-.44.15.62.62,0,0,1-.42-.15.55.55,0,0,1-.19-.45v-.44a.55.55,0,0,1,.19-.45.62.62,0,0,1,.42-.15.63.63,0,0,1,.44.15.59.59,0,0,1,.19.45Zm1.63.58H29.44v-.4l.6-.47c.13-.09.19-.18.19-.25s-.05-.15-.17-.15a.16.16,0,0,0-.18.18h-.44a.54.54,0,0,1,.18-.43.61.61,0,0,1,.44-.16.63.63,0,0,1,.44.15.53.53,0,0,1,.07.7,2.92,2.92,0,0,1-.29.26l-.23.17h.65Zm1.67,0H31.1v-.4l.6-.47c.13-.09.19-.18.19-.25s-.05-.15-.17-.15-.17.06-.17.18H31.1a.54.54,0,0,1,.19-.43.6.6,0,0,1,.43-.16.63.63,0,0,1,.44.15.5.5,0,0,1,.07.7A2.6,2.6,0,0,1,32,44l-.24.17h.66Zm7.31-9.49a.6.6,0,0,1-.29.51l-9.84,5.69a.5.5,0,0,1-.29.07.47.47,0,0,1-.28-.07l-9.84-5.69a.61.61,0,0,1-.3-.51V22.89a.59.59,0,0,1,.3-.51L23,20.18a.32.32,0,0,1,.3,0L29,23.51a.42.42,0,0,0,.24.07.45.45,0,0,0,.25-.07l5.77-3.33a.32.32,0,0,1,.3,0l3.81,2.2a.58.58,0,0,1,.29.51Zm-10.15-8a.64.64,0,0,1-.27.07.59.59,0,0,1-.26-.07l-5.65-3.27-1.46.85v1.63l5.67,3.28a.22.22,0,0,1,.12.2v3.47s0,0-.08,0l-4.27-2.46-1.44.85v1.73L29,37.48a.62.62,0,0,0,.26.06.58.58,0,0,0,.26-.06l7.11-4.12V31.63l-1.44-.85-4.27,2.46s-.08,0-.08,0V29.74a.24.24,0,0,1,.12-.2l5.67-3.28V24.63l-1.45-.85ZM28.44,43.34a.21.21,0,0,0-.12,0,.23.23,0,0,0-.05.15V44c0,.14.06.2.17.2s.19-.06.19-.2v-.44a.19.19,0,0,0-.06-.15A.17.17,0,0,0,28.44,43.34Zm.13,0a.17.17,0,0,0-.13,0,.21.21,0,0,0-.12,0,.23.23,0,0,0-.05.15V44c0,.14.06.2.17.2s.19-.06.19-.2v-.44A.19.19,0,0,0,28.57,43.39ZM31,29.54l5.67-3.28V24.63l-1.45-.85-5.65,3.27a.64.64,0,0,1-.27.07.59.59,0,0,1-.26-.07l-5.65-3.27-1.46.85v1.63l5.67,3.28a.22.22,0,0,1,.12.2v3.47s0,0-.08,0l-4.27-2.46-1.44.85v1.73L29,37.48a.62.62,0,0,0,.26.06.58.58,0,0,0,.26-.06l7.11-4.12V31.63l-1.44-.85-4.27,2.46s-.08,0-.08,0V29.74A.24.24,0,0,1,31,29.54Zm0,0,5.67-3.28V24.63l-1.45-.85-5.65,3.27a.64.64,0,0,1-.27.07.59.59,0,0,1-.26-.07l-5.65-3.27-1.46.85v1.63l5.67,3.28a.22.22,0,0,1,.12.2v3.47s0,0-.08,0l-4.27-2.46-1.44.85v1.73L29,37.48a.62.62,0,0,0,.26.06.58.58,0,0,0,.26-.06l7.11-4.12V31.63l-1.44-.85-4.27,2.46s-.08,0-.08,0V29.74A.24.24,0,0,1,31,29.54ZM28.57,43.39a.17.17,0,0,0-.13,0,.21.21,0,0,0-.12,0,.23.23,0,0,0-.05.15V44c0,.14.06.2.17.2s.19-.06.19-.2v-.44A.19.19,0,0,0,28.57,43.39ZM31,29.54l5.67-3.28V24.63l-1.45-.85-5.65,3.27a.64.64,0,0,1-.27.07.59.59,0,0,1-.26-.07l-5.65-3.27-1.46.85v1.63l5.67,3.28a.22.22,0,0,1,.12.2v3.47s0,0-.08,0l-4.27-2.46-1.44.85v1.73L29,37.48a.62.62,0,0,0,.26.06.58.58,0,0,0,.26-.06l7.11-4.12V31.63l-1.44-.85-4.27,2.46s-.08,0-.08,0V29.74A.24.24,0,0,1,31,29.54Zm0,0,5.67-3.28V24.63l-1.45-.85-5.65,3.27a.64.64,0,0,1-.27.07.59.59,0,0,1-.26-.07l-5.65-3.27-1.46.85v1.63l5.67,3.28a.22.22,0,0,1,.12.2v3.47s0,0-.08,0l-4.27-2.46-1.44.85v1.73L29,37.48a.62.62,0,0,0,.26.06.58.58,0,0,0,.26-.06l7.11-4.12V31.63l-1.44-.85-4.27,2.46s-.08,0-.08,0V29.74A.24.24,0,0,1,31,29.54Z"/><path class="cls-1" d="M11.77,20.32l-.52-.19-.7,1.92L10.3,22l.54-1.47-1.95-.71-.56,1.54-.23-.08.67-1.82-.52-.19-.67,1.82-.31-.12L7,21.56l1.06.38L7.6,23.3l2,.72.53-1.46.25.1-.7,1.91.52.19.71-1.91.67.25.23-.61-.69-.25ZM8.34,22.88l.84-2.29.21.07L8.55,23Zm.91.34L9,23.14l.85-2.29.2.07Zm7.59-9.11-1.31,1.42a9.19,9.19,0,0,0,0-.92c.5.17.73.08.87-.08s.17-.4-.06-.75a5.85,5.85,0,0,0-.38-.52l-.47.24c.08.09.23.29.3.38s.09.15.08.17-.09,0-.22,0l-.23-.12a5.1,5.1,0,0,0-.51-1.32l-.45.22a4.38,4.38,0,0,1,.31.69c-.2-.15-.44-.31-.67-.5l.66-.71-.41-.38-.29.32v-.41c-.17,0-.56,0-.73,0v.51l-.21-.19-.4.42.55.49-.64.69,1.46,1.35c.11.11.17.17.16.29l-.19-.18-.35.38-.43-.39.36-.39-.41-.39-.43.47-.38-.35.42-.45-.41-.38-.42.45-.41-.38-.4.44.4.37-.47.51.41.38L12,15l.37.36-.6.64.42.38.68-.73,1.08,1a1.53,1.53,0,0,1-.58-.18c-.14-.15-.31-.3-.5-.48l-.38.4a4.23,4.23,0,0,1,1.28,1.77l.51-.27a5.21,5.21,0,0,0-.34-.67,1.75,1.75,0,0,0,1.52-.73l1.75-1.87Zm-2.92-1.75-.27.28-.32-.28ZM15.07,16a3.46,3.46,0,0,1-.46.43l-.5-.46.36-.38-.17-.15.46,0c0-.28.07-1.05.09-1.13l-.53-.24,0,.4-.88-.81.27-.29a10.5,10.5,0,0,0,1.28.92,6.36,6.36,0,0,1,0,1.23h.51Zm8.57-5.82L21.82,11l-1.21-2.6,1.54-.71-.29-.62L18.15,8.84l.29.61L20,8.74l1.22,2.6-1.82.85.27.59,4.29-2Zm6.77-.42,0-.37,1,0,0-.57-1,0V8.46l1.11,0,0-.6-2.77-.08,0,.59,1.05,0v.38l-1,0,0,.57,1,0v.37l-1.34,0,0,.63,3.22.1,0-.62ZM28.3,7.94l-.12.1V7.68h.58V7.08l-.57,0,0-.57.63-.13-.1-.6A13.29,13.29,0,0,1,27,6.05l0,.6.56-.07,0,.46H27l0,.61.57,0a6,6,0,0,1-.78,1.39l.35.53a4.28,4.28,0,0,0,.44-.73l0,1.59.58,0,0-1.81.31.41.46-.37C28.76,8.48,28.43,8.09,28.3,7.94Zm.62-2-.05,1.63,2.62.08L31.54,6Zm2,1.14L29.5,7l0-.52,1.38,0Zm9.58,2.31.24-.54L38.05,7.65l-.24.55,1,.44-.19.43-1-.42-1.11,2.49.53.24.86-1.94.43.19-1.16,2.62.52.24.47-1.07-.11.53.34.15c.42.19.58.12.77-.32l.91-2-1-.42.19-.44Zm-1.11.69-.57,1.29c-.09.18-.1.19-.28.11l-.26-.11.66-1.5Zm-2-2.89L36.57,9c-.54,1.2-.77,1.48-1.87,1.78l.26.59c1.14-.36,1.57-.81,2.18-2.17l.8-1.81Zm-1,0L35.14,10l.51.22,1.28-2.87Zm11.07,7.59-.19-.65a7.89,7.89,0,0,1-1,.18L46.05,14l.09,0,.31-.95-.58-.24-.25.69-.45-.48.1,0c0-.17.2-.79.23-.94l-.59-.24c0,.15-.12.44-.18.67L44.22,12l-.83.78.43.46.39-.35,2.24,2.4-.23.22-2.14-2.3-.46.41,1.4,1.5a4.41,4.41,0,0,0-.81-.34l-.13.13-1.43-1.52-.45.43,1.42,1.51-.27.25c-.18.16-.21.17-.39,0l-.45-.49-.38.53.45.5c.44.46.68.51,1.09.12l.41-.38,1.3,1.4.45-.43L44.6,15.52a5.38,5.38,0,0,1,1.23.47l.28-.26.39.42.83-.78-.53-.56Zm3,4.46-4.31,1.49.19.56,1.11-.39-.3.18.09.23c.18.52.43.66,1,.46a2.38,2.38,0,0,0,1-.8h1.1l.59-.2ZM49,20.38a1.59,1.59,0,0,1-.76.68c-.28.1-.4.07-.49-.19l-.05-.13,2.37-.82.15.43Zm2.74,1.73-.31-.52-.34.33-.37-1.07-1.1.39.12.34-.42.15.71,2,.41-.14.14.38,1.1-.38-.36-1.07ZM50.55,23.4,50,21.7l.41-.14.59,1.7Zm-1.7-1.83-.55.2.15.44c-.65.2-.93.12-1.59-.45l-.29.55a1.82,1.82,0,0,0,2.06.45h0l.13.36-1,.33c-.44.16-.51.35-.38.76l.12.31c.14.42.33.55.78.42l.59-.19-.08-.52-.48.16c-.16.05-.21,0-.25-.1l0-.11c-.05-.13-.05-.17.1-.21l.83-.3.27.76.55-.19Z"/><path class="cls-1" d="M7.28,28.52a.74.74,0,0,1,.74.74.75.75,0,0,1-.74.75.76.76,0,0,1-.75-.75.75.75,0,0,1,.75-.74Z"/><path class="cls-1" d="M51,28.52a.74.74,0,0,1,.74.74A.75.75,0,0,1,51,30a.76.76,0,0,1-.75-.75.75.75,0,0,1,.75-.74Z"/><path class="cls-1" d="M8.26,33l-2.52.53.34,1.58L6.5,35l-.23-1.07L7,33.78l.18.89.43-.09-.2-.88L8,33.57l.22,1,.42-.09Z"/><path class="cls-1" d="M8.9,35.58l-.16-.48-2.44.78.47,1.48.41-.13-.32-1Z"/><path class="cls-1" d="M9.42,37.05,7,38l.19.48,2.38-1Z"/><path class="cls-1" d="M9.78,38l-.38.19.32.65-1.9,1,.23.46,1.91-1,.32.64.39-.19Z"/><path class="cls-1" d="M10.9,40.12,8.74,41.51l.87,1.36.36-.23-.59-.93.58-.37.49.76.36-.23-.49-.76.5-.32.57.89.37-.23Z"/><path class="cls-1" d="M12.67,42.65l-2,1.63.33.4L13,43Z"/><path class="cls-1" d="M14.47,44.62l-.73.72a8.94,8.94,0,0,0-.59.68h0l.21-.57L13.8,44l-.37-.38-1.82,1.8.34.35.73-.73c.21-.2.41-.46.59-.66h0l-.21.57-.45,1.49.37.37L14.81,45Z"/><path class="cls-1" d="M16,45.89a.8.8,0,0,0-1.16,0,.77.77,0,0,0,0,.87l.18.33c.11.22.2.36.08.51s-.3.14-.51,0a1,1,0,0,1-.32-.63l-.46.1a1.36,1.36,0,0,0,.5.87.83.83,0,0,0,1.22,0,.71.71,0,0,0,0-.86l-.18-.32c-.11-.2-.21-.37-.1-.51s.28-.12.46,0a.88.88,0,0,1,.29.52l.41-.1A1.13,1.13,0,0,0,16,45.89Z"/><path class="cls-1" d="M16.82,46.6l-.24.35.61.39L16,49.14l.43.28,1.17-1.79.62.4.23-.36Z"/><path class="cls-1" d="M18.89,47.89l-1.23,2.26.46.24,1.22-2.26Z"/><path class="cls-1" d="M19.75,48.37l-.17.39.66.3-.86,2,.47.2.87-1.95.65.29.18-.39Z"/><path class="cls-1" d="M23.38,49.77,23,51.15c-.15.52-.4.63-.68.54s-.42-.32-.25-.83l.43-1.39L22,49.32l-.42,1.35c-.26.81,0,1.26.59,1.45s1.06,0,1.31-.86l.42-1.35Z"/><path class="cls-1" d="M24.28,50l-.08.41.71.14-.41,2.1.51.1.4-2.1.72.14.08-.43Z"/><path class="cls-1" d="M28.2,51l0-.43-1.57-.14L26.45,53l1.61.14,0-.43L27,52.61l.06-.68L28,52l0-.42-.9-.08.06-.6Z"/><path class="cls-1" d="M30.72,50.48a1.15,1.15,0,0,0-1,1.39c.06.83.56,1.31,1.24,1.27A1.19,1.19,0,0,0,32,51.72C31.9,50.89,31.4,50.43,30.72,50.48Zm.15,2.22c-.38,0-.64-.32-.68-.86s.18-.89.56-.92.65.29.68.84S31.25,52.67,30.87,52.7Z"/><path class="cls-1" d="M34.08,51.61,34,51.19l-.9.16L33,50.69l1-.19L34,50.08l-1.56.29.45,2.52.52-.09-.19-1Z"/><path class="cls-1" d="M37.5,51.24l-1,.36-.22-.66.85-.29L37,50.24l-.86.29L35.91,50l1-.33-.14-.41-1.5.49.81,2.45,1.54-.51Z"/><path class="cls-1" d="M38.48,49.8l1.25.94.47-.22-1.08-2.33-.44.21.43.93a8.32,8.32,0,0,0,.44.78h0l-.47-.4-1.26-.92-.47.22,1.09,2.32.43-.19-.43-.94c-.13-.27-.3-.55-.44-.79h0Z"/><path class="cls-1" d="M42,47.84l-.78.47.23.36.38-.24.27.43a.56.56,0,0,1-.23.26c-.42.26-.82.11-1.12-.37a.77.77,0,0,1,.16-1.13.66.66,0,0,1,.54-.08l.06-.42a1.08,1.08,0,0,0-.85.13,1.23,1.23,0,0,0-.34,1.8,1.25,1.25,0,0,0,2.29-.24Z"/><path class="cls-1" d="M42.23,46.18l-.41.31,1.54,2.06.41-.32Z"/><path class="cls-1" d="M44.1,46.19l1.47.53.39-.35-1.72-1.9-.36.32.68.76c.2.21.45.44.65.62h0l-.56-.24-1.47-.51-.39.34,1.72,1.91.36-.32-.69-.76a6.38,6.38,0,0,0-.65-.63h0Z"/><path class="cls-1" d="M47.38,44.19l-.74.82-.51-.45.6-.68-.32-.28-.6.67-.44-.39.7-.8-.32-.28L44.7,44l1.92,1.71,1.08-1.22Z"/><path class="cls-1" d="M48.8,42.26l-.64.9-.56-.4.53-.73-.36-.26-.52.74-.48-.35.62-.87-.34-.24-.93,1.27,2.09,1.51.94-1.31Z"/><path class="cls-1" d="M50.3,40.6l.28-.49H49.37a.75.75,0,0,0-.4-.79c-.51-.3-.89,0-1.15.45l-.44.78,2.22,1.27.25-.45L49,40.9l.18-.32Zm-1.48-.2-.16.29L48,40.31l.17-.3c.15-.28.33-.4.57-.26S49,40.12,48.82,40.4Z"/><path class="cls-1" d="M48.74,38l-.22.47,2.33,1.07.22-.47Z"/><path class="cls-1" d="M50.38,37.07l1.55-.24.17-.48-2.42-.87-.16.46,1,.35c.27.09.6.17.86.24h0l-.6.06-1.54.24-.18.49,2.42.86.16-.45-1-.34a7,7,0,0,0-.86-.25h0Z"/><path class="cls-1" d="M52.53,33.46l-1.12-.25-.2.89.4.09.11-.44.49.11a.55.55,0,0,1,0,.34c-.11.48-.5.67-1,.54s-.81-.48-.71-.9a.68.68,0,0,1,.32-.44l-.26-.34a1.07,1.07,0,0,0-.5.7,1.23,1.23,0,0,0,1,1.49,1.18,1.18,0,0,0,1.56-.9A1.22,1.22,0,0,0,52.53,33.46Z"/><path class="cls-1" d="M68.88,43.52a2.94,2.94,0,0,1,2.88-3.24,2.55,2.55,0,0,1,1.81.79l-.65.79a1.61,1.61,0,0,0-1.14-.52c-.94,0-1.64.81-1.64,2.14s.64,2.15,1.62,2.15A1.74,1.74,0,0,0,73,45l.65.77a2.49,2.49,0,0,1-2,.91C70.15,46.7,68.88,45.58,68.88,43.52Z"/><path class="cls-1" d="M74.68,40.4h1.24v2.43h2.35V40.4H79.5v6.19H78.27V43.91H75.92v2.68H74.68Z"/><path class="cls-1" d="M80.71,43.47c0-2,1.13-3.19,2.77-3.19s2.77,1.18,2.77,3.19-1.13,3.23-2.77,3.23S80.71,45.47,80.71,43.47Zm4.27,0c0-1.33-.58-2.13-1.5-2.13S82,42.14,82,43.47s.59,2.16,1.51,2.16S85,44.79,85,43.47Z"/><path class="cls-1" d="M87.46,40.4h1.26l1.8,3.29L91.14,45h0c-.06-.64-.15-1.46-.15-2.16V40.4H92.2v6.19H90.94l-1.79-3.31-.63-1.34h0c.06.67.15,1.45.15,2.16v2.49H87.46Z"/><path class="cls-1" d="M93.42,43.52a3,3,0,0,1,3-3.24,2.64,2.64,0,0,1,1.92.79l-.67.79a1.63,1.63,0,0,0-1.21-.52c-1,0-1.75.81-1.75,2.14s.62,2.15,1.83,2.15a1.23,1.23,0,0,0,.78-.23V44.18H96.2v-1h2.2V46a2.93,2.93,0,0,1-2,.74A2.88,2.88,0,0,1,93.42,43.52Z"/><path class="cls-1" d="M105.22,48.09a2.53,2.53,0,0,1-1,.18,2.7,2.7,0,0,1-2.57-1.62c-1.32-.25-2.2-1.42-2.2-3.18,0-2,1.13-3.19,2.77-3.19S105,41.46,105,43.47a2.94,2.94,0,0,1-2,3.14,1.6,1.6,0,0,0,1.41.66,2.17,2.17,0,0,0,.68-.1Zm-3-2.4c.92,0,1.5-.83,1.5-2.22s-.58-2.13-1.5-2.13-1.51.8-1.51,2.13S101.27,45.69,102.19,45.69Z"/><path class="cls-1" d="M106.17,40.4h1.24v6.19h-1.24Z"/><path class="cls-1" d="M108.93,40.4h1.27L112,43.69l.62,1.34h0c-.06-.64-.15-1.46-.15-2.16V40.4h1.17v6.19h-1.26l-1.79-3.31L110,41.94h0c.06.67.15,1.45.15,2.16v2.49h-1.17Z"/><path class="cls-1" d="M114.89,43.52a3,3,0,0,1,3-3.24,2.59,2.59,0,0,1,1.91.79l-.66.79a1.63,1.63,0,0,0-1.21-.52c-1,0-1.75.81-1.75,2.14s.62,2.15,1.84,2.15a1.22,1.22,0,0,0,.77-.23V44.18h-1.09v-1h2.2V46a2.93,2.93,0,0,1-2,.74A2.88,2.88,0,0,1,114.89,43.52Z"/><path class="cls-1" d="M123.1,40.4h3.8v1h-2.56v1.43h2.17v1h-2.17v1.66H127v1H123.1Z"/><path class="cls-1" d="M128.24,40.4h1.24v5.15H132v1h-3.75Z"/><path class="cls-1" d="M133.07,40.4h1.24v6.19h-1.24Z"/><path class="cls-1" d="M137.06,41.43h-1.74v-1h4.74v1H138.3v5.16h-1.24Z"/><path class="cls-1" d="M141.06,40.4h3.8v1H142.3v1.43h2.18v1H142.3v1.66H145v1h-3.89Z"/><path class="cls-1" d="M148.11,40.4h1.23v6.19h-1.23Z"/><path class="cls-1" d="M150.87,40.4h1.26l1.8,3.29.62,1.34h0a21.07,21.07,0,0,1-.16-2.16V40.4h1.17v6.19h-1.25l-1.79-3.31-.63-1.34h0c.06.67.15,1.45.15,2.16v2.49h-1.17Z"/><path class="cls-1" d="M156.73,45.8l.71-.85a2.42,2.42,0,0,0,1.57.68c.64,0,1-.27,1-.71s-.38-.6-.93-.83l-.83-.35A1.81,1.81,0,0,1,157,42.07a1.94,1.94,0,0,1,2.15-1.79,2.74,2.74,0,0,1,1.94.79l-.63.78a2,2,0,0,0-1.31-.51c-.55,0-.9.24-.9.65s.44.61,1,.82l.81.34a1.71,1.71,0,0,1,1.25,1.68c0,1-.85,1.87-2.28,1.87A3.27,3.27,0,0,1,156.73,45.8Z"/><path class="cls-1" d="M163.39,41.43h-1.74v-1h4.74v1h-1.76v5.16h-1.24Z"/><path class="cls-1" d="M167.39,40.4h1.24v6.19h-1.24Z"/><path class="cls-1" d="M171.38,41.43h-1.74v-1h4.74v1h-1.76v5.16h-1.24Z"/><path class="cls-1" d="M175.35,43.8V40.4h1.24v3.51c0,1.29.44,1.72,1.17,1.72s1.2-.43,1.2-1.72V40.4h1.19v3.4c0,2.06-.88,2.9-2.39,2.9S175.35,45.86,175.35,43.8Z"/><path class="cls-1" d="M182.87,41.43h-1.74v-1h4.74v1h-1.76v5.16h-1.24Z"/><path class="cls-1" d="M186.87,40.4h3.8v1h-2.56v1.43h2.18v1h-2.18v1.66h2.65v1h-3.89Z"/><path class="cls-1" d="M193.61,43.47c0-2,1.13-3.19,2.77-3.19s2.77,1.18,2.77,3.19S198,46.7,196.38,46.7,193.61,45.47,193.61,43.47Zm4.27,0c0-1.33-.58-2.13-1.5-2.13s-1.51.8-1.51,2.13.59,2.16,1.51,2.16S197.88,44.79,197.88,43.47Z"/><path class="cls-1" d="M200.36,40.4h3.82v1H201.6V43h2.2v1h-2.2v2.51h-1.24Z"/><path class="cls-1" d="M207.15,40.4H211v1h-2.56v1.43h2.18v1h-2.18v1.66H211v1h-3.89Z"/><path class="cls-1" d="M212.3,40.4h1.26l1.8,3.29L216,45h0c-.06-.64-.16-1.46-.16-2.16V40.4H217v6.19h-1.26L214,43.28l-.63-1.34h0c.06.67.15,1.45.15,2.16v2.49H212.3Z"/><path class="cls-1" d="M218.26,43.52a3,3,0,0,1,3-3.24,2.59,2.59,0,0,1,1.91.79l-.66.79a1.63,1.63,0,0,0-1.21-.52c-1,0-1.75.81-1.75,2.14s.62,2.15,1.83,2.15a1.25,1.25,0,0,0,.78-.23V44.18H221v-1h2.21V46a2.93,2.93,0,0,1-2,.74A2.88,2.88,0,0,1,218.26,43.52Z"/><path class="cls-1" d="M224.57,40.4h1.23v6.19h-1.23Z"/><path class="cls-1" d="M227.33,40.4h1.26l1.8,3.29L231,45h0a21.07,21.07,0,0,1-.16-2.16V40.4h1.17v6.19h-1.25L229,43.28l-.63-1.34h0c.06.67.15,1.45.15,2.16v2.49h-1.17Z"/><path class="cls-1" d="M233.59,40.4h3.8v1h-2.56v1.43H237v1h-2.18v1.66h2.65v1h-3.89Z"/><path class="cls-1" d="M238.74,40.4h3.8v1H240v1.43h2.17v1H240v1.66h2.65v1h-3.89Z"/><path class="cls-1" d="M247.26,46.59,246,44.25h-.87v2.34h-1.23V40.4H246c1.3,0,2.33.45,2.33,1.87a1.76,1.76,0,0,1-1.18,1.78l1.45,2.54Zm-2.14-3.32h.81c.79,0,1.23-.34,1.23-1s-.44-.89-1.23-.89h-.81Z"/><path class="cls-1" d="M249.59,40.4h1.24v6.19h-1.24Z"/><path class="cls-1" d="M252.35,40.4h1.27l1.8,3.29L256,45h.05a21.07,21.07,0,0,1-.16-2.16V40.4h1.17v6.19h-1.26L254,43.28l-.62-1.34h0c.06.67.15,1.45.15,2.16v2.49h-1.17Z"/><path class="cls-1" d="M258.31,43.52a3,3,0,0,1,3-3.24,2.6,2.6,0,0,1,1.92.79l-.66.79a1.65,1.65,0,0,0-1.22-.52c-1,0-1.75.81-1.75,2.14s.62,2.15,1.84,2.15a1.27,1.27,0,0,0,.78-.23V44.18h-1.1v-1h2.2V46a2.93,2.93,0,0,1-2,.74A2.88,2.88,0,0,1,258.31,43.52Z"/></g></g></svg>