<svg xmlns="http://www.w3.org/2000/svg" viewBox="0 0 268.65 58.71"><defs><style>.cls-1,.cls-2{fill:#fff;}.cls-1{fill-rule:evenodd;}</style></defs><g id="图层_2" data-name="图层 2"><g id="图层_1-2" data-name="图层 1"><path class="cls-1" d="M28.08,16a13.58,13.58,0,0,1,2.55,0l.59-1.64h0a15.21,15.21,0,0,1,4,1.06h0l-.32,1.72a13.11,13.11,0,0,1,2.21,1.28l1.33-1.14,0,0a15.28,15.28,0,0,1,2.85,2.83l0,0H40.17l0,0a14.67,14.67,0,0,0-1.62-1.63l-1.32,1.13,0,0a12.49,12.49,0,0,0-3.39-2h0l.32-1.7a14.28,14.28,0,0,0-2.22-.6L31.34,17h0a11.76,11.76,0,0,0-2-.15,11.6,11.6,0,0,0-2,.15h0l-.58-1.63a14.58,14.58,0,0,0-2.22.6l.32,1.7h0a12.49,12.49,0,0,0-3.39,2l0,0-1.31-1.13a13.94,13.94,0,0,0-1.63,1.63l0,0H17.36l0,0a15.28,15.28,0,0,1,2.85-2.83l0,0,1.33,1.14a13.11,13.11,0,0,1,2.21-1.28l-.32-1.72h0a15.31,15.31,0,0,1,4-1.06h0Z"/><path class="cls-1" d="M29.36,17.7a11.62,11.62,0,0,1,7.16,2.46h-.74a11.23,11.23,0,0,0-12.85,0H22.2a11.59,11.59,0,0,1,7.16-2.46"/><path class="cls-1" d="M41.76,39.92a3.49,3.49,0,0,0,.06.46,5.05,5.05,0,0,0-1.37.61,4.48,4.48,0,0,0,.79-3.17c-1.11,1.57-2.66,2.78-2.51,4.5a3.52,3.52,0,0,0,0,.46,4.67,4.67,0,0,0-1.56.81c-.09.07-.21.22-.23.19s.11-.17.19-.27a12.12,12.12,0,0,0,1.39-2.76c-2.37,1.82-3,1.75-4.23,3.32a5.86,5.86,0,0,1-2.43.87c-.12,0-.12.19,0,.18a6.34,6.34,0,0,1,2,.17c2.07.79,3.68.38,5.84-.77a9.46,9.46,0,0,1-3.42-.29c.19-.06.37-.23.57-.18,2.47.56,4.18-.36,5.87-2.13-1.47.37-2.6.51-3.74.79h0c.07-.22.41-.38.41-.39,1.69-.73,3.54-.08,5.29-2.91a9,9,0,0,1-2.69.92,1,1,0,0,1,.08-.49c1.29-1.25,2.92-.71,4.52-4.24a6,6,0,0,0-2.36,1.34,3.51,3.51,0,0,1,.26-.63c1.39-1.23,2.75-2.15,3-4.12a9.07,9.07,0,0,1-1.75,1.21A8.14,8.14,0,0,0,47.47,28c-.39,1.8-1.49,2-2.13,3.37A6.51,6.51,0,0,0,44,29.06c-.17,3.08,1,3,1.12,5.18l-.45.35a6.11,6.11,0,0,0-.91-3.06c-.07,1.62-.69,3.54.27,4.91a1.47,1.47,0,0,1,.05.63,2.2,2.2,0,0,1-1,.49,5.52,5.52,0,0,0-.2-3c-.25,1.73-1.43,3.11-1.16,5.31m2.5-16.18a5.3,5.3,0,0,1,1.44,3.85c.45-.35.62-1.83,1.4-2.38a6,6,0,0,1-1.89,4.91c-.09-1.34-1.14-.5-1.43-3.78.53.3.55,1.13,1.36,1.58A7,7,0,0,1,44.26,23.74Z"/><path class="cls-1" d="M17,39.92c0,.18,0,.36-.05.46a4.86,4.86,0,0,1,1.36.61,4.48,4.48,0,0,1-.79-3.17c1.12,1.57,2.66,2.78,2.51,4.5a3.52,3.52,0,0,1,0,.46,4.57,4.57,0,0,1,1.56.81c.1.07.22.22.24.19s-.11-.17-.19-.27a11.36,11.36,0,0,1-1.39-2.76c2.36,1.82,3,1.75,4.22,3.32a5.86,5.86,0,0,0,2.43.87c.12,0,.12.19,0,.18a6.41,6.41,0,0,0-2,.17c-2.06.79-3.68.38-5.83-.77a9.43,9.43,0,0,0,3.41-.29c-.19-.06-.37-.23-.56-.18-2.47.56-4.19-.36-5.88-2.13,1.47.37,2.61.51,3.74.79h0c-.07-.22-.42-.38-.42-.39-1.68-.73-3.54-.08-5.28-2.91a9,9,0,0,0,2.68.92.9.9,0,0,0-.08-.49c-1.29-1.25-2.92-.71-4.51-4.24a6,6,0,0,1,2.35,1.34,2.91,2.91,0,0,0-.26-.63c-1.39-1.23-2.74-2.15-3-4.12A9.07,9.07,0,0,0,13,33.4,8.19,8.19,0,0,1,11.24,28c.39,1.8,1.49,2,2.13,3.37a6.52,6.52,0,0,1,1.34-2.31c.16,3.08-1,3-1.12,5.18l.44.35a6.11,6.11,0,0,1,.91-3.06c.07,1.62.69,3.54-.27,4.91a1.3,1.3,0,0,0,0,.63,2.23,2.23,0,0,0,1,.49,5.72,5.72,0,0,1,.2-3c.25,1.73,1.43,3.11,1.16,5.31m-2.5-16.18A5.34,5.34,0,0,0,13,27.59c-.45-.35-.61-1.83-1.39-2.38a6,6,0,0,0,1.88,4.91c.09-1.34,1.14-.5,1.43-3.78-.53.3-.54,1.13-1.35,1.58A7,7,0,0,0,14.45,23.74Z"/><path class="cls-1" d="M37.51,31.11H21.2l-.76-1.31H38.27ZM31.44,41.62l.76-1.31H26.51l.76,1.31Zm-1,1.76.76-1.32H27.52l.76,1.32Zm-11-15.33H39.28l-.76,1.31H20.19Zm-3.79-6.57H43.08l-3,5.25H18.67ZM30.12,34.62l-.76-1.32h0l-.76,1.32Zm-1.53,2.19.76,1.31h0l.76-1.31ZM28,35.72l.38.65h2l.37-.65-.38-.67h-2Zm4.18,2.4-.88-1.53-.88,1.53Zm.66,1.15-.41-.71H30.13l-.76,1.31h3.09Zm-.41-2.46.76,1.31h.32l.76-1.31Zm1.53-2.19-.75-1.32h0l-.76,1.32ZM34.71,36l-.53-.92h-2l-.38.67.37.65h2.34Zm-.53-2.67.76,1.32h.55l.76-1.32Zm-1-1.75.75,1.31H36.5l.76-1.31Zm-2.8,1.75.89,1.54.89-1.54Zm-1-1.75.76,1.31H32.4l.76-1.31Zm-2.8,1.75.89,1.54.89-1.54Zm-1-1.75.76,1.31H28.6l.76-1.31Zm-.76,1.31.76-1.31H21.46l.75,1.31Zm-1,1.76.76-1.32H22.47l.76,1.32h.55Zm2.53,0-.76-1.32h0l-.76,1.32Zm.26,1.75.38-.65-.39-.67h-2L24,36l.23.4Zm-1,1.75.76-1.31H24.49l.76,1.31Zm2.78,0-.89-1.53-.88,1.53Zm1,1.75-.76-1.31H26.32l-.41.71.35.6Zm16-19.71-16,27.7-16-27.7Zm-16,25.08.82-1.43H28.54Z"/><path class="cls-1" d="M29.36,1.75A27.61,27.61,0,1,0,57,29.36,27.61,27.61,0,0,0,29.36,1.75m0-1.75A29.36,29.36,0,1,1,0,29.36,29.35,29.35,0,0,1,29.36,0Z"/><path class="cls-1" d="M35,8.45a5.72,5.72,0,0,0-.23.77c0,.1.63-.06.69-.07h0l.36-.07.29-.1.06,0,.05,0s0,0,0,0V8.82s0,0,0,0,0,0,0,0l0,0,0,0a.24.24,0,0,1,.09.08.41.41,0,0,1,.1.14,1.39,1.39,0,0,1,.06.19h0v0a.37.37,0,0,1,0,.11s0,.06,0,.07h0s0,0-.07,0-.17.09-.21.09-.25,0-.48.07-.66.12-.84.15h-.1s-.16,0-.15.06a1.56,1.56,0,0,0,.14.47,4.13,4.13,0,0,1,.1.44l.16.44c0,.1.1.23.14.33a2,2,0,0,1,.09.22,2.46,2.46,0,0,0,.28.45l.14.17a.61.61,0,0,0,.15.13,1.44,1.44,0,0,0,.31.19,3.35,3.35,0,0,0,.42.19l.16,0c.08,0,0,0-.12.09a3.69,3.69,0,0,1-.52.1,1.62,1.62,0,0,0-.3,0,.62.62,0,0,1-.38-.11.71.71,0,0,1-.28-.24,2.25,2.25,0,0,1-.12-.21,2.73,2.73,0,0,1-.28-.58c-.05-.15-.08-.34-.12-.47-.12-.38-.19-.63-.27-.82s0-.08-.07-.09-.05,0-.07.05-.19.38-.31.55a3.41,3.41,0,0,1-.38.38,1,1,0,0,1-.59.32,1.38,1.38,0,0,1-.29,0,5,5,0,0,1-.58-.12,8.76,8.76,0,0,1-.95-.18c-.26-.09-.28-.14-.14-.2.3,0,1,0,1.33,0a1.63,1.63,0,0,0,.72-.33,2.36,2.36,0,0,0,.31-.32,1.36,1.36,0,0,0,.24-.38,1.76,1.76,0,0,0,.22-.38H33.7l-.25,0c-.13,0-.2.07-.24.07l-.16,0c-.07,0-.07,0-.14.05l-.12,0s-.08,0-.09,0-.16,0-.22.07a.26.26,0,0,1-.22-.12l0-.12a.41.41,0,0,0-.07-.13.31.31,0,0,1,.28-.28l.21,0a3,3,0,0,0,.46-.08c.26,0,.58,0,.86-.12l.15,0q.07-.19.18-.42c.1-.42.48-1.41.6-2L35,6.25h0c0-.09-.09-.22-.08-.3h0s0,0,0,0h0A.22.22,0,0,1,35,5.79h.06a2.26,2.26,0,0,1,.48.17h0l0,0s0,0,0,0,.06,0,.06.08a.11.11,0,0,1,.06.09h0s0,.06,0,.12-.07.26-.1.31h0a.66.66,0,0,1-.11.26l0,.1V7A12.46,12.46,0,0,0,35,8.45Z"/><path class="cls-1" d="M47.22,11.16c-.37.09-.85.16-1,.22s-.06.1,0,.12a.91.91,0,0,1,0,.21s-.18,0-.24,0a2.09,2.09,0,0,1-.26,0c-.18,0-.24,0-.31,0s0,.37,0,.49-.3.08-.32.23a.16.16,0,0,1,0,.19.88.88,0,0,0,.32,0c.08,0,.13,0,.18,0l0,0a.65.65,0,0,1,0-.41.37.37,0,0,1,.18-.22c.09,0,.12-.18.19-.19a.46.46,0,0,1,.27,0c.16.14,0,.33.08.51s.6-.15.72-.19v0c-.19-.15-.43-.29-.41-.49s.54.07.75.16.25,0,.37,0,.27.94,0,1a5.26,5.26,0,0,0-2.09.2l0,0s0,.06,0,.11c.23.18.5.32.76.51a1,1,0,0,1,.26.49c.05.17-.17.23-.22.28s-.18,0-.38,0a2.25,2.25,0,0,1-.4-.09,3.56,3.56,0,0,1-.39-.09c-.12,0-.33-.07-.46-.11s-.51-.15-.76-.22L44,14a.12.12,0,0,1-.08,0h0l-.08,0h0l-.06,0-.12-.05s-.07,0-.09,0l0,0,0,.05.1.09h0c0,.06.2.08.25.12h0l.14.05a1,1,0,0,0,.15.11.06.06,0,0,0,0,.05h0v.06h0s0,0,0,.07l0,0s0,0,0,.06l0,0h0v.09l0,.05h0l0,0h-.22l0,0,0,0s0,0-.08,0l0,0v0a1.53,1.53,0,0,0-.3,0H43.3s0,0,0,.06-.06.05,0,.08a.29.29,0,0,0,.12.07h0s.06,0,.09,0l.4.17.47.23h0c.18.15.11.12.19.32v0s0,0,0,.06l0,0,0,0c0,.06.07.19,0,.25s-.07.11-.25.05-.18-.11-.24-.14-.25-.14-.39-.2-.28-.16-.42-.23-.21-.15-.33-.19l-.1,0c-.26.29-.65.93-.87,1.22-.06.18-.2.24-.33.35h0l-.12.14h0l-.13.08h0c0,.05-.08.09-.11.06l-.5-.45h0l0-.11v0l0,0s0-.1,0-.12h0a.5.5,0,0,0,0-.13h0l0-.06s-.07-.09-.07-.12-.06-.52-.16-.6,0,0,0,0h0l0-.13,0,0,0,0v0c.06,0,.15.11.29.25s.19.16.28.26a3.16,3.16,0,0,1,.18.27c0,.05.08.1.12.12l.06,0,0,0c.14-.19.32-.48.44-.64s.26-.32.41-.48a5.68,5.68,0,0,0-1.15-.48h0c-.12-.1-.44-.17-.46-.37h0s0,0,0,0h0a.29.29,0,0,1-.07-.12v0s-.1-.19-.07-.23h0l0-.09h0l0-.05s0,0,0-.05h0a.09.09,0,0,0,0,0s.06-.11.1-.1.25.11.33.11c.36.17.32.23.62.39s.76.4.82.44l0,0a1.05,1.05,0,0,0,.44.11c.16,0,.24-.11.33-.17h.07a.25.25,0,0,0,.13-.06l.1-.09c-.09-.08-.14-.18-.23-.26h0l-.05,0h0c-.1-.09-.2-.13-.22-.27h0l0-.09a.17.17,0,0,0,.12,0,.38.38,0,0,0,.18,0s0,0,.06,0l0,0h0a1,1,0,0,0,.39,0l0,0h0l.12,0h.18l.15,0a8.72,8.72,0,0,0,1.79.21v0h0a4.78,4.78,0,0,0-1.54-.64l-1-.35a.23.23,0,0,1-.14-.08h0l0,0h-.07L43,12.58h0l-.06,0-.06-.05h0l0,0h0l-.23-.19v0l0,0v0s0,0,0,0h0v0h0l.06-.07s0,0,0,0,0,0,0,0l0,0h.13l0,0,0,0h.08l0,0h0l0,0h0l0,0h.05l0,0h.26l.11,0c.45.07.95.54,1.27-.07,0-.05,0-.2,0-.22l-.35,0a2.22,2.22,0,0,1-.43,0,.38.38,0,0,1-.14-.05h0a.57.57,0,0,1,.13-.14,2.49,2.49,0,0,1,.75-.22c0-.07,0-.17,0-.27s-.13-.05-.23-.07,0,0,0,.14-.32.13-.39.15-.15,0-.22,0-.26.47-.5.32c0,0-.33-.39-.28-.42a1.72,1.72,0,0,1,.14-.22,1.65,1.65,0,0,0,.3-.52.59.59,0,0,0,0-.2s0,0,0,0a.84.84,0,0,1,.28.51c.1.2.38-.35.49-.44a.17.17,0,0,1,.24.08.53.53,0,0,1-.07.35c-.06.08.1.11.1.11l.16-.21a.27.27,0,0,0-.05-.22.57.57,0,0,1-.07-.39c0-.13.2.08.24.07a.88.88,0,0,1,.3.1c.08,0,.11.08.18.12s0,.44.19.46c.45-.14.93-.27,1.37-.44h.05s.15,0,.17-.05h0l0,0a.37.37,0,0,0,.14-.07h0l0,0s.15-.11.15-.17,0,0,0,0,0,0,.07-.13l0,0,0,0h0c.07.05,0,0,.09,0h0v0l.13.12h0s0,0,0,0,0,0,0,0l.06.06h0v0h0l0,0,0,0,0,0a0,0,0,0,0,0,0v0h0a.06.06,0,0,1,0,0h0s0,0,0,0,0,0,0,0,0,0,0,0,0,0,0,0,0,0,0,0v0h0v.07s0,0,0,0a0,0,0,0,0,0,0v0h0v0l0,.06,0,0h0s0,0,0,.05,0,0,0,0,0,0,0,0h0l-.16,0h-.15a.94.94,0,0,0-.29,0h-.13Zm-4.94.4c.11.06.09.13.11.23s0,.09,0,.15a.64.64,0,0,1-.28.32.81.81,0,0,1-.22,0l-.17.06c-.19.07-.4-.35-.34-.51a1.19,1.19,0,0,1,.42-.11c.07,0,.12-.08.2-.11Z"/><path class="cls-1" d="M24.41,9.7l-.07.23a1,1,0,0,1,.14.38.86.86,0,0,1-.19.35c-.17.19-.39.22-.72,0a1.26,1.26,0,0,1,.84-.92m.88-1.28c.09-.16.17-.29.24-.43a.17.17,0,0,0,0-.15.17.17,0,0,0-.15,0,1,1,0,0,0-.28.42Zm.31,1.94a1.23,1.23,0,0,0,.42-.19.82.82,0,0,1,.25-.12.36.36,0,0,1,.39.51c-.08.19-.15.38-.22.57s-.05.14-.08.23l.24.08.23.06c.22.06.27.11.28.26a.46.46,0,0,1-.29.4.47.47,0,0,1-.49-.1l-.25-.21-.5.6a.52.52,0,0,1-.63.1l0,0c-.26-.18-.25-.25,0-.41l.54-.37a1.62,1.62,0,0,0,.18-.19l-.1-.23c0-.14,0-.2.14-.2H26l.11-.42a.26.26,0,0,0-.3,0c-.05,0-.1.06-.14,0-.21,0-.27.11-.37.24a8.3,8.3,0,0,0-.76,1.28c-.1.19-.22.36-.33.54a.71.71,0,0,1-.15.15.14.14,0,0,1-.22,0,1.63,1.63,0,0,1-.23-.29.34.34,0,0,1,0-.31,1.62,1.62,0,0,1,.42-.63,3.6,3.6,0,0,0,.82-1.08A3.31,3.31,0,0,1,25,10.3a2.14,2.14,0,0,0-.13-.19,1.21,1.21,0,0,1-.1-.14.21.21,0,0,1,.15-.33,3,3,0,0,1,.31,0,.49.49,0,0,0,.4-.38c0-.08,0-.14-.06-.17s-.1,0-.15,0a.47.47,0,0,1-.72.1l.14-.34c-.16-.12-.17-.12-.28,0s-.16.13-.28.06a1.81,1.81,0,0,0,0-.23c0-.08,0-.16,0-.23s-.15,0-.2.09L24,8.68a13.87,13.87,0,0,1-.92,1.8c-.22.42-.45.85-.66,1.28s-.33.69-.5,1-.32.55-.48.83a.76.76,0,0,1-.08.11c-.19.21-.28.19-.4-.08a.24.24,0,0,0-.06-.11.5.5,0,0,1,0-.56,5.65,5.65,0,0,0,.23-.57c0-.1.12-.05.17-.1a3.19,3.19,0,0,0,.33-.4c.78-1.28,1.54-2.56,2.31-3.84A.41.41,0,0,0,24,7.79a.41.41,0,0,1,.22-.34.5.5,0,0,0,.19-.19l.46-.7a1.14,1.14,0,0,0,.08-.2l-.34.14-.86.38a1.51,1.51,0,0,0-.22.11,1,1,0,0,1-1,.09.33.33,0,0,1-.25-.37c.4-.1.8-.18,1.18-.31a5.16,5.16,0,0,0,1.15-.49l-.72-.46a.37.37,0,0,1-.19-.3c0-.11.06-.16.17-.14a3.44,3.44,0,0,0,.78.08,1,1,0,0,1,.46.12c.21.09.24.21.16.46l.19-.06c.18-.09.35-.19.53-.26s.38,0,.46.18a.61.61,0,0,1,.05.12.32.32,0,0,1-.23.46c-.21.06-.42.11-.63.18a.41.41,0,0,0-.2.12c-.31.42-.61.85-.92,1.28,0,0,0,0,0,.08a1.25,1.25,0,0,0,.09.12c.11.11.16.1.24,0A2,2,0,0,1,25,7.64a1.63,1.63,0,0,0,.45-.95.32.32,0,0,1,.37,0c.05,0,.08.11.08.16s-.07.3-.11.45c.15.1.17.11.29,0A1.23,1.23,0,0,0,26.32,7a.18.18,0,0,1,.2-.1.41.41,0,0,1,.35.29.3.3,0,0,1-.13.36,3,3,0,0,1-.36.26,1.73,1.73,0,0,0-.57.6l0,.08a.15.15,0,0,0,.25,0,2.31,2.31,0,0,1,.2-.24.61.61,0,0,1,.23-.15c.13-.05.22,0,.27.15a1.19,1.19,0,0,0,.12.22.22.22,0,0,1,0,.33c-.09.08-.19.14-.28.21s-.15.14-.09.32a.24.24,0,0,1-.14.34l-.43.23A.55.55,0,0,0,25.6,10.36Z"/><path class="cls-1" d="M15,14.49a1.7,1.7,0,0,1,0-.5A1.84,1.84,0,0,1,15,13.7h0a2.21,2.21,0,0,0,.05-.29l0,0h0l0,.05.11.18c0,.07.11.13,0,.27s0,.07-.06.17l-.07.15c0,.05,0,.11-.07.17a.73.73,0,0,1-.09.13s0,0,0,0m1.36-1.55c0,.15,0,.21,0,.33s-.06.21-.08.25h0l-.11.08-.21-.3s0-.05.05-.11h0l.11-.27.07-.11h0l0-.09.06,0,.07,0A2.08,2.08,0,0,0,16.37,12.94Zm0,1.19.21.22h0a2.81,2.81,0,0,1,.2.38.62.62,0,0,0,.08.12s.08,0,.17,0a.33.33,0,0,1,.14,0,.13.13,0,0,1,.12,0,.45.45,0,0,1,.13.14c0,.08,0,.17,0,.22s0,.15,0,.15a2.71,2.71,0,0,0,0,.29,1.47,1.47,0,0,1,0,.26c.06,0,.09,0,.13,0a1.23,1.23,0,0,0,.2-.33.36.36,0,0,1,.2-.25c.06-.05.28,0,.4.09a.3.3,0,0,1,.09.35l-.35.45c-.09.12-.19.29-.27.41a.76.76,0,0,0-.18.31c0,.14-.27.25-.34.24s-.48-.12-.53-.26-.1-.32-.11-.36a2.58,2.58,0,0,0-.1-.57c-.06-.13-.11-.21-.14-.29s0-.07-.08-.08h-.17c-.06,0-.13.06-.19.05h-.16s-.05-.05,0-.12,0-.09,0-.11l.05-.06,0,0a1.1,1.1,0,0,1,.22-.16v0a.27.27,0,0,0-.06-.1,2.06,2.06,0,0,1-.16-.15,2.68,2.68,0,0,1-.27-.5l-.11-.15h0l-.05,0c0,.07,0,.17-.1.22s-.08.12-.06.16l0,.07h0s0,0,0,.09-.18.57-.2.54v0a.43.43,0,0,1-.22.09s-.08,0-.11,0l-.05,0h0a.57.57,0,0,1-.22-.55,1.08,1.08,0,0,0,0-.19s0-.06,0-.16h0a.37.37,0,0,0,0-.18v0a.25.25,0,0,0,0-.17s0,0,0,0,0-.17,0-.2,0-.13,0-.19,0-.16,0-.19,0-.31,0-.34v0l0-.09s0-.19,0-.19,0-.21,0-.21v-.07s0,0,0-.06l0-.06-.06,0s-.05.11-.08.13a.82.82,0,0,1-.15.27.59.59,0,0,1-.09.24s-.15.26-.13.3a1,1,0,0,1-.1.21.51.51,0,0,0-.09.24s0,.07,0,.08h0s-.08.13-.06.15,0,.07,0,.08h0a2.18,2.18,0,0,0-.09.23h0l0,.06a1.77,1.77,0,0,1-.08.25v0a.72.72,0,0,0,0,.19s0,.07,0,.08h0c0,.16-.18.41-.2.53h0a.78.78,0,0,1-.37.3L13,16a1.43,1.43,0,0,0-.21.06l-.43.12s-.14,0-.16,0l0-.2s0-.25.06-.28h0a2.23,2.23,0,0,0,.08-.24s.09-.12.08-.13l0,0h0c.11-.1,1-1.58,1-1.58s.16-.36.28-.44h0s.21-.31.2-.31.21-.31.21-.32.14-.16.13-.17.09-.21.16-.26h0c0-.05,0-.11.08-.14h0a.08.08,0,0,0,0-.09h0l-.24-.36.09-.23s.29-.51.31-.52.06,0,.08-.06l.06,0s0,0,.05.05,0,.07.06.08v0s.15.25.17.29l0-.06c.06,0,.39-.32.37-.35s.1-.07.24-.09l.09.05c.2.11,0,.31,0,.34s0,.15-.05.17a.88.88,0,0,1,0,.29h0l-.16.3h0a1.67,1.67,0,0,1-.06.29,2.21,2.21,0,0,0,.15.53l.07.13.11-.22h0c.09-.06.08-.29.17-.35s.24-.22.23-.22c.19-.07.48-.11.61.08,0,0,.09.16,0,.2s0,.05,0,.09v.44s0,.08,0,.08a1.29,1.29,0,0,0,0,.29v.09a2.06,2.06,0,0,0,0,.25c0,.08,0,.13-.08.2a1.24,1.24,0,0,1-.16.19A.49.49,0,0,1,16.36,14.13ZM13.43,8.08a.15.15,0,0,1,.1,0,.58.58,0,0,0,.16,0,2.92,2.92,0,0,1,.36.22,1.19,1.19,0,0,1,.37.54,1.42,1.42,0,0,1,0,.65s-.08.21-.13.42-.1.55-.18.88c0,.16-.12.35-.15.5s-.07.33-.1.46-.09.26-.1.31a3.37,3.37,0,0,1-.29.74s0-.52,0-.9c0-.17,0-.32,0-.38s0-.41,0-.6c0-.53,0-1,0-1.61a2.32,2.32,0,0,0-.06-.59C13.45,8.56,13.33,8.15,13.43,8.08Z"/><path class="cls-1" d="M19.52,25.92v-.4a1.07,1.07,0,0,0,.46-.09.36.36,0,0,0,.12-.31V23.37c0-.16,0-.26-.1-.31a1,1,0,0,0-.48-.08V22.6a3.67,3.67,0,0,0,.61-.05c.18,0,.34-.2.48-.26h.45v2.83a.36.36,0,0,0,.12.31,1.2,1.2,0,0,0,.49.09v.4Z"/><path class="cls-2" d="M26.56,23.52a.77.77,0,0,0-.17-.52.63.63,0,0,0-.48-.18.63.63,0,0,0-.69.69.72.72,0,0,0,.17.5.6.6,0,0,0,.47.19.68.68,0,0,0,.52-.18.65.65,0,0,0,.18-.5m.05.88a1.56,1.56,0,0,1-.48.21,1.77,1.77,0,0,1-.52.07,1.54,1.54,0,0,1-1-.31,1,1,0,0,1-.4-.82,1,1,0,0,1,.46-.87,2,2,0,0,1,1.21-.34,1.74,1.74,0,0,1,1.28.45,1.7,1.7,0,0,1,.45,1.27,1.84,1.84,0,0,1-.5,1.37,1.87,1.87,0,0,1-1.39.49,2.06,2.06,0,0,1-.95-.2c-.25-.13-.37-.29-.37-.48a.36.36,0,0,1,.12-.28.54.54,0,0,1,.33-.1q.32,0,.45.39a.41.41,0,0,1,0,.07.3.3,0,0,0,.11.15.77.77,0,0,0,.25,0,.85.85,0,0,0,.69-.29A1.21,1.21,0,0,0,26.61,24.4Z"/><path class="cls-2" d="M38.62,23.52a.77.77,0,0,0-.17-.52.66.66,0,0,0-.49-.18.68.68,0,0,0-.5.18.69.69,0,0,0-.18.51.72.72,0,0,0,.17.5.6.6,0,0,0,.47.19.7.7,0,0,0,.52-.18.65.65,0,0,0,.18-.5m.05.88a1.67,1.67,0,0,1-.48.21,1.77,1.77,0,0,1-.52.07,1.59,1.59,0,0,1-1-.31,1,1,0,0,1-.39-.82,1,1,0,0,1,.46-.87,2,2,0,0,1,1.21-.34,1.55,1.55,0,0,1,1.72,1.72,1.84,1.84,0,0,1-.49,1.37,1.87,1.87,0,0,1-1.39.49,2,2,0,0,1-1-.2c-.25-.13-.37-.29-.37-.48a.36.36,0,0,1,.12-.28.53.53,0,0,1,.32-.1c.22,0,.37.13.46.39a.41.41,0,0,1,0,.07.25.25,0,0,0,.11.15.73.73,0,0,0,.25,0,.85.85,0,0,0,.69-.29A1.21,1.21,0,0,0,38.67,24.4Z"/><path class="cls-1" d="M30.13,25.92c.28-1.16.68-1.28,1.69-1.68a.94.94,0,0,0,.65-.88.58.58,0,0,0-.22-.43.65.65,0,0,0-.46-.15.77.77,0,0,0-.4.1c-.11.06-.17.13-.17.21a.84.84,0,0,0,.08.14.44.44,0,0,1,.07.24.34.34,0,0,1-.14.28.57.57,0,0,1-.36.11.47.47,0,0,1-.35-.14.49.49,0,0,1-.13-.36c0-.74,1-1.07,1.56-1.07a2.28,2.28,0,0,1,1.21.31,1.05,1.05,0,0,1,0,1.72c-.5.28-1.94.28-2,.77,0,.12,0,.26.32.25A5.87,5.87,0,0,0,33,25.18a1.12,1.12,0,0,0,.29-.43h.35l.08,1.17Z"/><path class="cls-1" d="M50.77,25.08l0,.2a2,2,0,0,0-.46.32c-.17.13-.25.25-.25.35a1.62,1.62,0,0,0,0,.21,1,1,0,0,0,0,.2v.12L53,26.13a.5.5,0,0,0,.16-.05.24.24,0,0,0,.1-.15.74.74,0,0,0,0-.18,1.86,1.86,0,0,0,0-.22l.2,0,.25,2-.2,0c0-.05,0-.11,0-.2a1.2,1.2,0,0,0-.06-.18.29.29,0,0,0-.13-.12.46.46,0,0,0-.17,0l-2.87.36v.12s0,.12,0,.2a1.93,1.93,0,0,0,0,.2c0,.1.13.19.32.29a2.28,2.28,0,0,0,.53.19l0,.2-1,.13-.44-3.51Zm3,4.15-.05,2h-.2V31a1.52,1.52,0,0,0,0-.19.23.23,0,0,0-.1-.13.34.34,0,0,0-.16,0l-2.6-.07a.33.33,0,0,0-.15,0,.22.22,0,0,0-.12.13l0,.18c0,.08,0,.14-.05.2h-.2l.06-2h.2c0,.05,0,.11,0,.19a.78.78,0,0,0,0,.19.19.19,0,0,0,.1.14.42.42,0,0,0,.16,0l2.6.07a.41.41,0,0,0,.16,0,.29.29,0,0,0,.11-.13.69.69,0,0,0,0-.18.88.88,0,0,0,0-.2Zm-.24,4.51a2.28,2.28,0,0,1-.17.61,2.43,2.43,0,0,1-.26.46l.15.2,0,.22-1.31-.15,0-.22c.13,0,.27-.08.42-.13a1.94,1.94,0,0,0,.4-.22,1.4,1.4,0,0,0,.33-.31,1,1,0,0,0,.17-.43.77.77,0,0,0-.1-.56.56.56,0,0,0-.4-.24.48.48,0,0,0-.38.11,1.3,1.3,0,0,0-.31.45l-.19.38c0,.11-.11.22-.16.32a1.15,1.15,0,0,1-.5.48,1,1,0,0,1-.63.1,1,1,0,0,1-.4-.15,1.18,1.18,0,0,1-.31-.32,1.38,1.38,0,0,1-.18-.46,1.93,1.93,0,0,1,.15-1.13,2.16,2.16,0,0,1,.22-.39L50,32.18,50,32l1.24.15,0,.22-.43.12a2,2,0,0,0-.38.17,1,1,0,0,0-.27.26.73.73,0,0,0-.15.37.67.67,0,0,0,.1.47.5.5,0,0,0,.36.22.46.46,0,0,0,.38-.1,1.35,1.35,0,0,0,.31-.44l.18-.37.17-.33a1.38,1.38,0,0,1,.47-.51,1,1,0,0,1,.66-.1,1,1,0,0,1,.44.17,1.15,1.15,0,0,1,.32.34,1.63,1.63,0,0,1,.19.51A2.21,2.21,0,0,1,53.54,33.74ZM53,35.91l-.51,1.3-1,.24c-.27.07-.58.17-.93.28l-.06.14,1,.4a.31.31,0,0,0,.16,0,.22.22,0,0,0,.15-.08l.09-.13.1-.15.18.07-.71,1.81-.19-.07c0-.05,0-.11.06-.19a.82.82,0,0,0,0-.18.34.34,0,0,0,0-.16.56.56,0,0,0-.14-.09l-2.41-.93-.16,0a.25.25,0,0,0-.15.09.74.74,0,0,0-.12.16c0,.06-.08.11-.1.15l-.18-.07.75-1.91a2,2,0,0,1,.58-.89.71.71,0,0,1,.74-.1.84.84,0,0,1,.49.43,1.35,1.35,0,0,1,.1.76l.64-.19.75-.23.31-.12a.63.63,0,0,0,.25-.16.48.48,0,0,0,.09-.13l.06-.11Zm-3.17.64a.65.65,0,0,0-.58,0,.89.89,0,0,0-.37.48l-.08.19,1.44.56.07-.18a.84.84,0,0,0,0-.62A.87.87,0,0,0,49.86,36.55Zm-1.45,3.28L48.3,40a1.34,1.34,0,0,0-.49,0,.68.68,0,0,0-.41.18.92.92,0,0,0-.13.17l-.12.19-.28.45,1.21.74.19-.32a.86.86,0,0,0,.11-.24.49.49,0,0,0,0-.24.54.54,0,0,0-.12-.22,1.2,1.2,0,0,0-.18-.2l.11-.17,1.3.8-.1.17a1.2,1.2,0,0,0-.28-.08.74.74,0,0,0-.25,0,.41.41,0,0,0-.22.1,1.29,1.29,0,0,0-.17.21l-.2.32.91.55a1,1,0,0,0,.23.12.28.28,0,0,0,.18,0,.4.4,0,0,0,.15-.12l.17-.25S50,42,50,42a1.82,1.82,0,0,0,.1-.19.84.84,0,0,0,.08-.2.3.3,0,0,0,0-.16A1.83,1.83,0,0,0,50,41a3,3,0,0,0-.22-.38l.1-.16.93.65L49,44l-.17-.1.09-.18c0-.08,0-.13.06-.17a.31.31,0,0,0,0-.17.65.65,0,0,0-.12-.11l-2.21-1.34-.14-.06a.35.35,0,0,0-.17.06l-.15.13-.12.14-.17-.1,1.7-2.76Zm-2.56,2.75a1.1,1.1,0,0,0-.09.14.38.38,0,0,0-.06.16.45.45,0,0,0,0,.22,1.58,1.58,0,0,0,.06.23c0,.12.11.29.2.52l.32.79.34.85.37.9-.37.36L44.8,46l-1.26-.54a.82.82,0,0,0-.22-.05.65.65,0,0,0-.23,0l-.15.06-.16.1-.14-.14,1.42-1.39.13.14a2,2,0,0,0-.21.32c0,.06,0,.11,0,.13l.05,0,.08,0c.15.07.39.18.74.32l1.56.66L46,44.63l-.34-.77a2.64,2.64,0,0,0-.14-.29,1.67,1.67,0,0,0-.12-.19s-.1,0-.18,0a1.39,1.39,0,0,0-.38.25l-.14-.15,1.06-1ZM44.3,48.81,42.63,50l-.12-.17.16-.13a.45.45,0,0,0,.14-.13.23.23,0,0,0,0-.15.47.47,0,0,0-.06-.15l-1.48-2.14a.35.35,0,0,0-.11-.1A.24.24,0,0,0,41,47l-.18.06-.2.09-.11-.17,1.67-1.14.12.16-.15.13-.14.14a.23.23,0,0,0,0,.17.47.47,0,0,0,.06.15l1.47,2.13a.6.6,0,0,0,.12.11.31.31,0,0,0,.17,0l.18-.06.18-.1Zm-4.18-1.33-.18.11a.66.66,0,0,0-.18.19.47.47,0,0,0,0,.27,2.25,2.25,0,0,0,.18.47L41,50.89l-.43.19-3.25-1.61L38.07,51a2.37,2.37,0,0,0,.24.42.42.42,0,0,0,.23.16.48.48,0,0,0,.24,0l.25,0,.08.18-1.43.67-.09-.19.2-.13a.47.47,0,0,0,.15-.17.44.44,0,0,0,0-.26,2.16,2.16,0,0,0-.19-.48l-.73-1.57a.86.86,0,0,0-.13-.2.63.63,0,0,0-.2-.13.69.69,0,0,0-.25,0l-.27,0-.08-.18,1.25-.58,2.85,1.41-.59-1.25a1.92,1.92,0,0,0-.24-.43.46.46,0,0,0-.23-.16,1,1,0,0,0-.25,0l-.24,0L38.6,48,40,47.3Zm-4.63,2-.2.08a.58.58,0,0,0-.22.13A.34.34,0,0,0,35,50a2.11,2.11,0,0,0,.05.5l.27,1.33a1.25,1.25,0,0,1-.22,1,1.53,1.53,0,0,1-1,.56,1.85,1.85,0,0,1-1.26-.11,1.2,1.2,0,0,1-.61-.88l-.36-1.83a.26.26,0,0,0-.06-.14.31.31,0,0,0-.16-.09.42.42,0,0,0-.17,0h-.16l0-.2,1.88-.36,0,.19A1,1,0,0,0,33,50l-.16.07a.18.18,0,0,0-.11.13.29.29,0,0,0,0,.16l.36,1.81a1.09,1.09,0,0,0,.39.72.92.92,0,0,0,.73.11.91.91,0,0,0,.64-.4,1.09,1.09,0,0,0,.1-.84l-.24-1.21a1.92,1.92,0,0,0-.14-.47.48.48,0,0,0-.18-.21.89.89,0,0,0-.25-.05h-.24l0-.2,1.57-.31Zm13-28.7a.64.64,0,0,0,.08.14.65.65,0,0,0,.11.12,1,1,0,0,0,.22.14l.26.09.62.16.73.17a1.2,1.2,0,0,0,.37.05,1.25,1.25,0,0,0,.4-.1l.49-.16a.28.28,0,0,0,.14-.09.26.26,0,0,0,.07-.16s0-.1,0-.19a2.06,2.06,0,0,0,0-.21l.19-.06.66,1.91-.19.07-.09-.19-.09-.17a.22.22,0,0,0-.15-.08.35.35,0,0,0-.17,0l-.61.21-.14.05a.31.31,0,0,0-.1,0l-.1.1-.15.17-.5.58-.44.52a2,2,0,0,0-.16.24.94.94,0,0,0-.07.22.54.54,0,0,0,0,.18l0,.17-.19.07-.68-2,.19-.06a1.4,1.4,0,0,0,.17.35c0,.06.08.08.11.07a.41.41,0,0,0,.1-.08l.2-.21.36-.39.52-.6c-.6-.15-1-.24-1.25-.29a1.4,1.4,0,0,0-.42-.05.17.17,0,0,0-.09.15,1.09,1.09,0,0,0,.06.34l-.19.07-.44-1.28Z"/><path class="cls-1" d="M4.88,29.44l.16-2h.2v.19a.42.42,0,0,0,0,.18.22.22,0,0,0,.09.13.25.25,0,0,0,.16.05l1.26.1.12-1.56-1.24-.09a.29.29,0,0,0-.16,0,.28.28,0,0,0-.12.12l0,.16a1.08,1.08,0,0,0,0,.19H5.07l.16-2,.2,0a.58.58,0,0,0,0,.19.74.74,0,0,0,0,.18.28.28,0,0,0,.09.14.38.38,0,0,0,.16.05l2.59.19a.24.24,0,0,0,.15,0,.34.34,0,0,0,.12-.12,1.82,1.82,0,0,0,.08-.19,1,1,0,0,0,0-.18l.2,0-.15,2-.2,0a1.34,1.34,0,0,0,0-.19,1.39,1.39,0,0,0,0-.17.18.18,0,0,0-.09-.14.43.43,0,0,0-.16,0l-1.09-.08L7,28.15l1.07.08a.34.34,0,0,0,.15,0,.22.22,0,0,0,.12-.13.54.54,0,0,0,.07-.17,1.32,1.32,0,0,0,.05-.18l.2,0-.15,2h-.2a1.28,1.28,0,0,0,0-.19,1.11,1.11,0,0,0,0-.19.24.24,0,0,0-.1-.14.42.42,0,0,0-.15,0l-2.6-.2L5.3,29a.25.25,0,0,0-.11.13,1.07,1.07,0,0,0-.06.17.93.93,0,0,0,0,.19ZM27.41,52.26h-.15l-.16,0a.23.23,0,0,0-.16.08.47.47,0,0,0-.06.15l-.07.42,0,.2c0,.06,0,.12,0,.2a3.26,3.26,0,0,1-.81.15,3.59,3.59,0,0,1-.94,0,2.4,2.4,0,0,1-.71-.25,1.87,1.87,0,0,1-.54-.47,1.81,1.81,0,0,1-.3-.66,2.28,2.28,0,0,1,.28-1.57,1.72,1.72,0,0,1,.52-.55,1.81,1.81,0,0,1,.7-.28,2.43,2.43,0,0,1,.85,0,2.3,2.3,0,0,1,.56.18,2.34,2.34,0,0,1,.4.24l.18-.11.22,0L27,51.33l-.23,0a2.47,2.47,0,0,0-.3-1,.94.94,0,0,0-.63-.41.86.86,0,0,0-.83.29,2.24,2.24,0,0,0-.48,1.12,2.58,2.58,0,0,0,0,1.29.82.82,0,0,0,.65.58,1.14,1.14,0,0,0,.41,0,.86.86,0,0,0,.3-.11l.13-.73a.43.43,0,0,0,0-.16.32.32,0,0,0-.11-.13L25.72,52l-.19-.07,0-.19,1.84.33Zm-4.16-2.71-.2,0a.46.46,0,0,0-.26,0,.36.36,0,0,0-.22.16,2.33,2.33,0,0,0-.24.44l-1.08,2.38-.43-.19-.9-3.5-.71,1.56a2,2,0,0,0-.16.46.43.43,0,0,0,0,.28.6.6,0,0,0,.16.18l.19.15-.08.18L17.91,51l.08-.19a.7.7,0,0,0,.23.06.6.6,0,0,0,.23,0,.37.37,0,0,0,.22-.15,2.17,2.17,0,0,0,.25-.44l.71-1.58a.73.73,0,0,0,.07-.24.59.59,0,0,0,0-.23.57.57,0,0,0-.13-.21,1.3,1.3,0,0,0-.21-.18l.09-.18,1.26.56.79,3.07L22,50a1.68,1.68,0,0,0,.16-.46.43.43,0,0,0,0-.28.5.5,0,0,0-.16-.18,1,1,0,0,0-.19-.15l.08-.18,1.44.65Zm-6.48.71-1.71-1.09.11-.17.18.1a.59.59,0,0,0,.17.07.31.31,0,0,0,.17,0A.43.43,0,0,0,15.8,49l1.41-2.18a.3.3,0,0,0,.05-.15.23.23,0,0,0-.05-.16l-.13-.14a.92.92,0,0,0-.15-.14L17,46.1l1.7,1.09-.1.17-.18-.09-.18-.07a.24.24,0,0,0-.17,0,.34.34,0,0,0-.12.12l-1.4,2.18a.47.47,0,0,0-.06.15.29.29,0,0,0,.06.16.64.64,0,0,0,.12.13l.16.14Zm-1-4.67a1.81,1.81,0,0,1-.11.72,1.87,1.87,0,0,1-.44.69,2,2,0,0,1-1,.59,1.78,1.78,0,0,1-1.13-.13.92.92,0,0,0-.24.52.5.5,0,0,0,.15.45,2.61,2.61,0,0,0,.2.17l.18.11-.16.16a3.24,3.24,0,0,1-.4-.21,2.8,2.8,0,0,1-.48-.37,1,1,0,0,1-.34-.68,1,1,0,0,1,.27-.74,2.08,2.08,0,0,1-.5-1.26,2,2,0,0,1,.13-.67,2,2,0,0,1,.41-.62,2,2,0,0,1,.67-.48,1.8,1.8,0,0,1,.74-.16,1.57,1.57,0,0,1,.73.15,2.17,2.17,0,0,1,1.12,1.06A1.8,1.8,0,0,1,15.73,45.59ZM13.43,47a1.83,1.83,0,0,0,.49-.27,4,4,0,0,0,.5-.45,3.64,3.64,0,0,0,.4-.48,1.67,1.67,0,0,0,.26-.49,1,1,0,0,0,.05-.47.71.71,0,0,0-.23-.42.79.79,0,0,0-.82-.17A2.71,2.71,0,0,0,13,45a3.74,3.74,0,0,0-.41.5,2.12,2.12,0,0,0-.25.5.92.92,0,0,0,0,.46.66.66,0,0,0,.23.4.78.78,0,0,0,.4.21A.93.93,0,0,0,13.43,47Zm-2-3.16-.09-.11-.12-.11a.2.2,0,0,0-.17-.06.39.39,0,0,0-.15.06l-.36.23-.18.11-.16.11a3,3,0,0,1-.66-.48,3.82,3.82,0,0,1-.61-.7,2.33,2.33,0,0,1-.3-.69,1.71,1.71,0,0,1,0-.71,1.63,1.63,0,0,1,.28-.67,2,2,0,0,1,.6-.56,2.3,2.3,0,0,1,.75-.31A1.72,1.72,0,0,1,11,40a1.8,1.8,0,0,1,.69.32,2.5,2.5,0,0,1,.57.63,2,2,0,0,1,.24.52,1.92,1.92,0,0,1,.1.46l.21.06.12.19-1.12.73-.12-.19a2.35,2.35,0,0,0,.5-.87.89.89,0,0,0-.12-.74.86.86,0,0,0-.78-.41,2.23,2.23,0,0,0-1.15.42,2.37,2.37,0,0,0-.93.9.8.8,0,0,0,0,.87,1,1,0,0,0,.27.3,1,1,0,0,0,.29.15l.62-.4a.29.29,0,0,0,.11-.11.23.23,0,0,0,0-.17,1.08,1.08,0,0,0-.06-.2,1.59,1.59,0,0,0-.08-.18l.17-.11,1,1.6Zm-.85-5-.11-.18a.47.47,0,0,0-.18-.19.43.43,0,0,0-.27,0,3,3,0,0,0-.48.15l-2.44,1-.17-.43L8.73,36l-1.6.62a2,2,0,0,0-.44.22.44.44,0,0,0-.18.21.61.61,0,0,0,0,.24c0,.11,0,.19,0,.25l-.19.07-.57-1.46L6,36a1,1,0,0,0,.11.2.51.51,0,0,0,.17.16.37.37,0,0,0,.26.05A2,2,0,0,0,7,36.3l1.62-.63a.57.57,0,0,0,.21-.13A.49.49,0,0,0,9,35.36a.69.69,0,0,0,0-.24.9.9,0,0,0,0-.28l.19-.07.5,1.28L8.1,38.79l1.29-.5a2.34,2.34,0,0,0,.45-.22.49.49,0,0,0,.17-.22.61.61,0,0,0,0-.24c0-.11,0-.19,0-.25l.18-.07.58,1.47Zm-2-5a1.82,1.82,0,0,1-.54.49,1.9,1.9,0,0,1-.77.26,2.25,2.25,0,0,1-.78,0,1.81,1.81,0,0,1-.66-.3,2.1,2.1,0,0,1-.5-.57,2.14,2.14,0,0,1-.25-.82,1.94,1.94,0,0,1,.33-1.43A1.85,1.85,0,0,1,6,30.9a2.17,2.17,0,0,1,1.59-.2,1.93,1.93,0,0,1,.67.34,1.91,1.91,0,0,1,.47.58,2.35,2.35,0,0,1,.24.75,2.18,2.18,0,0,1,0,.77A1.94,1.94,0,0,1,8.59,33.81Zm-2.68-.33a2.16,2.16,0,0,0,.55.1,5.56,5.56,0,0,0,.67,0,3,3,0,0,0,.61-.12,1.89,1.89,0,0,0,.52-.22,1,1,0,0,0,.33-.33.74.74,0,0,0,.09-.47.77.77,0,0,0-.53-.65,2.68,2.68,0,0,0-1.28-.08,3.06,3.06,0,0,0-.63.13,2,2,0,0,0-.51.23.91.91,0,0,0-.32.33.75.75,0,0,0-.08.45.82.82,0,0,0,.19.42A1,1,0,0,0,5.91,33.48ZM6,22.14a2.07,2.07,0,0,1,.36-.67A1.74,1.74,0,0,1,6.89,21a1.77,1.77,0,0,1,.7-.19,2,2,0,0,1,.79.11,2.08,2.08,0,0,1,.7.39,1.79,1.79,0,0,1,.46.6,1.92,1.92,0,0,1,.19.72,2.14,2.14,0,0,1-.12.79,2,2,0,0,1-.25.5,2.24,2.24,0,0,1-.29.35l.08.2-.07.21L7.8,24.29l.08-.21a2.31,2.31,0,0,0,1-.15.86.86,0,0,0,.48-.54.78.78,0,0,0-.17-.83,2.39,2.39,0,0,0-1.06-.62,2.79,2.79,0,0,0-.73-.15,1.34,1.34,0,0,0-.55.05.88.88,0,0,0-.38.24,1.07,1.07,0,0,0-.24.4,1.1,1.1,0,0,0,0,.67,1.65,1.65,0,0,0,.4.67l-.2.17a2.64,2.64,0,0,1-.31-.37,1.52,1.52,0,0,1-.25-.9A2,2,0,0,1,6,22.14Z"/><path class="cls-2" d="M68.76,35.31h2.7v-.72h13.2v.74H87.4V16H68.76V35.31Zm2.7-16.87h13.2V32.07H71.46V18.44ZM84.19,31V28.67h-1.9l1.06-.84c-.38-.49-1-1.23-1.48-1.82h1.55v-2.3H79.23V21.87h4.41v-2.3H72.45v2.3h4.21v1.84H72.75V26h3.91v2.66H71.89V31Zm-2.91-2.32h-2V26h1.35l-.88.65c.36.43,1.09,1.31,1.58,2Zm28,5.67L111,32.22c-2.79-1.46-4.26-2.74-5.52-5.26,1.31-.63,2.57-1.31,3.58-1.9l-1.3-2.16a52,52,0,0,1-5.63,3A10.68,10.68,0,0,0,100.8,24c.47-.29.9-.56,1.33-.88h5v-2.2H93.87v2.2h4a38.52,38.52,0,0,1-7.14,2.57l.88,2.3a36.93,36.93,0,0,0,7-2.77l.27.38a38.64,38.64,0,0,1-8.26,3.49l.88,2.25a41.69,41.69,0,0,0,8.39-3.85,3.33,3.33,0,0,1,.18.56,32.38,32.38,0,0,1-9.95,4.71l1.1,2.34a37.49,37.49,0,0,0,9.21-4.75,6.19,6.19,0,0,1,0,.74c0,1.58-.5,2-2.16,2H96.12l.45,2.34h2.61c3.11,0,4-1,4-3.94a17.11,17.11,0,0,0-.29-3.28l.33-.14a15.17,15.17,0,0,0,6,6.35ZM91.12,22h2.61V19.57h13.65V22H110V17.27h-7.63l.18-.06c-.45-.79-1.06-1.83-1.33-2.35L98.42,16c.24.38.51.87.78,1.32H91.12V22Zm24.14-1.85v8.67h6.46v1.13h-8.51v2.31h8.51v3h2.7v-3H133V29.91h-8.53V28.78h6.51V20.11h-6.87v-1h8.11v-2.3h-8.11V15.41h-2.75v4.7Zm2.7,2.3h10.22v.94H118v-.94Zm0,4.07v-.94h10.22v.94Zm20.89-.74-2.29,0c0,4.21-.39,6-1.76,9l2.25.77a21.27,21.27,0,0,0,1.11-3c1.17,1.81,3.31,2.59,6.53,2.59h10.69l.45-2.52h-8.06a30.16,30.16,0,0,0,2.79-2.65c.88,2,1.8,2.45,2.7,2.45,1.15,0,1.72-.63,2.14-2.34a24.36,24.36,0,0,0,.52-2.66l-2.09-.72c-.05.52-.23,1.53-.3,2s-.2.72-.31.72-.34-.18-.54-.74c-.09-.27-.2-.61-.29-1A23.5,23.5,0,0,0,155,22.27l-2-.72a25.35,25.35,0,0,1-1.22,2.91c-.16-1.08-.29-2.26-.38-3.52h4V18.62h-1.76l1.24-1.17c-.47-.54-1.65-1.68-2.19-2.16l-1.53,1.44V15.56h-2.43l.07,3.06h-3.92v8.31c0,.66,0,1-.4,1.31V27.16h-2.19V24.73h2.21V22.39h-2.64V20.22h2.59V17.88h-2.59V15.59h-2.47v2.29h-2.93v2.34h2.93v2.17h-3.67v2.34h4.14v6.21a7.25,7.25,0,0,1-1.1-2.3c0-.85.06-1.82.06-2.9Zm5.66,3.81v-.93l1.14,1.49c.9-.72,3.45-2.75,3.72-2.93l-.74-2.3-1.33,1.06v-5H149a40.91,40.91,0,0,0,.84,6.53A27,27,0,0,1,146,31l1.44,1.6H145a14.38,14.38,0,0,1-2.64-.18V29.55Zm8.37-10.93h-1.62l-.07-1.77c.45.42,1.17,1.21,1.69,1.77Zm23.78.93V16.71H159.59v2.84h7v12h-8.35v2.74H178V31.53h-8.38v-12Zm23.28,7.07V24.14H188.37v2.48h4.39v1.6h-4V30.6h4v1.58h-5.61v2.61h13.47V32.18h-5.3V30.6h4.08V28.22h-4.08v-1.6Zm-12.86,2.79,1.85-1.6c-.7-.85-2.12-2.45-2.68-3.08l-.52.45V23.67h2.39V21.1h-2.39V18.69a26.62,26.62,0,0,0,2.64-.63l-.54-2.47a54.67,54.67,0,0,1-7.1,1.41l.23,2.53c.65-.09,1.49-.23,2.34-.39v2h-2.61v2.57h2.41a26.51,26.51,0,0,1-3.09,5.9l1.53,2.2a22.83,22.83,0,0,0,1.76-3.1v6.62h2.43V27.72l1.35,1.69Zm1.51-13.17V23h10.95v-6.8Zm2.57,2.32h5.76v2.18h-5.76V18.56Zm31.84.2V16.28H210.88v2.48h4.6v2h-4.37V32.16h2.39v-8.9h2v12h2.38V30.42l.45,2.19h1.53c2,0,2.44-.52,2.44-2.5V20.74h-4.42v-2Zm-12.95-3.2h-2.48V24c0,5.52-.45,7-4.14,10l2,1.82c3.73-3.36,4.59-5.79,4.59-12V15.56Zm-6.28,14.62h2.32V17h-2.32V30.18Zm16.17-6.92v5.9c0,.86-.07.93-.91.93h-1.17V23.26Zm6.16.32h2.68V21.37H242.5V22.7H229.37v2.57h8.53a20.45,20.45,0,0,0-3.33,1.48v.81h-8.69v2.62h8.69v1.5c0,1-.09,1.11-1.22,1.11h-2.77l.55,2.65h2.81c2.66,0,3.47-.6,3.47-2.95V30.18h8V27.56h-7.54c1.46-.83,4.21-2.36,4.93-2.38v-1.6h2.39V18.83h-3.25c.61-.81,1.24-1.74,1.69-2.37l-2.56-1.26a36.22,36.22,0,0,1-2.32,3.63h-1.45l.39-.18c-.39-.68-1.78-3.18-2-3.65l-2.39,1.08,1.42,2.75h-2.79l.43-.23c-.38-.63-1.89-2.88-2.25-3.4l-2.39,1.17c.32.57,1,1.6,1.51,2.46H226.1v4.75Zm22.59,11.57h2.43V30.24l.29,1.44h1.06c2.3,0,3.18-.78,3.18-3.44A9.86,9.86,0,0,0,254,23l1.51-4.37V16.1h-6.78v19Zm7-12.88h1.55V24.1h8.94V22.27h1.71V17.39h-4.7c-.38-.86-.95-2-1.13-2.3l-2.47.52.83,1.78h-4.73v4.88Zm12.83,7.84-2.13-.41c0,.52,0,1.51-.05,2.1s-.13.87-.72.87h-.5c-.58,0-.74-.06-.74-.72V28.28h3.38V25.85H256v2.43h1.94c-.09,2.84-.79,3.85-3.94,5.68l1.78,1.89c3.55-2.27,4.57-3.87,4.61-7.52v0h1.55v4.39c0,2,.64,2.53,2.44,2.53h1.37c1.85,0,2.66-.52,2.72-2.53.05-.65.07-1.91.09-2.56Zm-17.4-11.44H253l-1.55,4.84a6.7,6.7,0,0,1,1.62,4c0,1.22-.27,1.67-1.39,1.67h-.59V18.67ZM258,19.86h7.55v1.8H258v-1.8Z"/><path class="cls-2" d="M68.76,40.09h1.37l2,3.34.67,1.36h0a19.2,19.2,0,0,1-.18-2.2v-2.5h1.28v6.28H72.54L70.6,43l-.68-1.35h0c.06.68.16,1.47.16,2.19v2.52H68.76Z"/><path class="cls-2" d="M78.73,44.76H76.54l-.47,1.61H74.71l2.15-6.28h1.58l2.17,6.28H79.2Zm-.3-1-.2-.69c-.2-.65-.39-1.37-.59-2.05h0c-.18.69-.38,1.4-.58,2.05l-.2.69Z"/><path class="cls-2" d="M82,41.13H80.14v-1h5.15v1H83.38v5.24H82Z"/><path class="cls-2" d="M86.38,40.09h1.35v6.28H86.38Z"/><path class="cls-2" d="M89,43.2a3,3,0,1,1,6,0,3,3,0,1,1-6,0Zm4.65,0c0-1.35-.64-2.15-1.64-2.15s-1.63.8-1.63,2.15.63,2.2,1.63,2.2S93.69,44.54,93.69,43.2Z"/><path class="cls-2" d="M96.38,40.09h1.37l2,3.34.67,1.36h.05a19.2,19.2,0,0,1-.18-2.2v-2.5h1.28v6.28h-1.37L98.22,43l-.68-1.35h-.05c.06.68.16,1.47.16,2.19v2.52H96.38Z"/><path class="cls-2" d="M106.34,44.76h-2.18l-.47,1.61h-1.36l2.15-6.28h1.58l2.17,6.28h-1.41Zm-.29-1-.2-.69c-.21-.65-.39-1.37-.59-2.05h0c-.18.69-.38,1.4-.58,2.05l-.2.69Z"/><path class="cls-2" d="M109,40.09h1.34v5.23h2.73v1H109Z"/><path class="cls-2" d="M116.33,40.09h4.12v1h-2.78v1.45H120v1.06h-2.37v1.68h2.88v1h-4.22Z"/><path class="cls-2" d="M121.92,40.09h1.34v5.23H126v1h-4.07Z"/><path class="cls-2" d="M127.16,40.09h1.35v6.28h-1.35Z"/><path class="cls-2" d="M131.5,41.13h-1.89v-1h5.14v1h-1.9v5.24H131.5Z"/><path class="cls-2" d="M135.85,40.09H140v1h-2.78v1.45h2.36v1.06h-2.36v1.68h2.88v1h-4.22Z"/><path class="cls-2" d="M143.5,40.09h1.35v6.28H143.5Z"/><path class="cls-2" d="M146.5,40.09h1.37l2,3.34.67,1.36h.05a19.2,19.2,0,0,1-.18-2.2v-2.5h1.28v6.28h-1.37L148.34,43l-.68-1.35h0c.06.68.16,1.47.16,2.19v2.52H146.5Z"/><path class="cls-2" d="M152.86,45.57l.78-.86a2.75,2.75,0,0,0,1.71.69c.7,0,1.07-.28,1.07-.72s-.41-.61-1-.85l-.9-.36a1.84,1.84,0,0,1-1.36-1.68c0-1,1-1.82,2.32-1.82a3.09,3.09,0,0,1,2.11.81l-.68.78a2.23,2.23,0,0,0-1.43-.51c-.59,0-1,.24-1,.66s.48.61,1.05.82l.89.35a1.76,1.76,0,0,1,1.35,1.71c0,1-.92,1.9-2.47,1.9A3.73,3.73,0,0,1,152.86,45.57Z"/><path class="cls-2" d="M160.11,41.13h-1.89v-1h5.14v1h-1.91v5.24h-1.34Z"/><path class="cls-2" d="M164.45,40.09h1.35v6.28h-1.35Z"/><path class="cls-2" d="M168.79,41.13H166.9v-1h5.15v1h-1.91v5.24h-1.35Z"/><path class="cls-2" d="M173.1,43.54V40.09h1.35v3.56c0,1.31.48,1.75,1.27,1.75S177,45,177,43.65V40.09h1.29v3.45c0,2.09-1,3-2.6,3S173.1,45.63,173.1,43.54Z"/><path class="cls-2" d="M181.27,41.13h-1.89v-1h5.15v1h-1.91v5.24h-1.35Z"/><path class="cls-2" d="M185.62,40.09h4.13v1H187v1.45h2.37v1.06H187v1.68h2.89v1h-4.23Z"/><path class="cls-2" d="M192.94,43.2a3,3,0,1,1,6,0,3,3,0,1,1-6,0Zm4.64,0c0-1.35-.63-2.15-1.63-2.15s-1.64.8-1.64,2.15.64,2.2,1.64,2.2S197.58,44.54,197.58,43.2Z"/><path class="cls-2" d="M200.27,40.09h4.15v1h-2.8v1.64H204v1h-2.39v2.55h-1.35Z"/><path class="cls-2" d="M207.66,40.09h4.12v1H209v1.45h2.37v1.06H209v1.68h2.88v1h-4.22Z"/><path class="cls-2" d="M213.25,40.09h1.37l1.95,3.34.68,1.36h0a21.82,21.82,0,0,1-.17-2.2v-2.5h1.27v6.28H217L215.08,43l-.68-1.35h0c.06.68.16,1.47.16,2.19v2.52h-1.27Z"/><path class="cls-2" d="M219.72,43.25A3.1,3.1,0,0,1,223,40a2.92,2.92,0,0,1,2.08.81l-.72.79a1.86,1.86,0,0,0-1.32-.52,1.91,1.91,0,0,0-1.9,2.16c0,1.37.68,2.19,2,2.19a1.38,1.38,0,0,0,.85-.24V43.92h-1.19v-1h2.39v2.83a3.3,3.3,0,0,1-2.18.76A3,3,0,0,1,219.72,43.25Z"/><path class="cls-2" d="M226.58,40.09h1.34v6.28h-1.34Z"/><path class="cls-2" d="M229.58,40.09H231l2,3.34.67,1.36h.05a21.82,21.82,0,0,1-.17-2.2v-2.5h1.27v6.28h-1.36l-2-3.36-.68-1.35h0c.07.68.17,1.47.17,2.19v2.52h-1.27Z"/><path class="cls-2" d="M236.39,40.09h4.12v1h-2.78v1.45h2.36v1.06h-2.36v1.68h2.88v1h-4.22Z"/><path class="cls-2" d="M242,40.09h4.12v1h-2.78v1.45h2.36v1.06h-2.36v1.68h2.88v1H242Z"/><path class="cls-2" d="M251.23,46.37,249.85,44h-.94v2.38h-1.34V40.09h2.34c1.41,0,2.53.46,2.53,1.9a1.81,1.81,0,0,1-1.28,1.81l1.57,2.57ZM248.91,43h.87c.87,0,1.34-.34,1.34-1s-.47-.91-1.34-.91h-.87Z"/><path class="cls-2" d="M253.77,40.09h1.34v6.28h-1.34Z"/><path class="cls-2" d="M256.77,40.09h1.37l1.95,3.34.68,1.36h0a21.82,21.82,0,0,1-.17-2.2v-2.5h1.27v6.28h-1.36L258.6,43l-.68-1.35h0c.06.68.16,1.47.16,2.19v2.52h-1.27Z"/><path class="cls-2" d="M263.24,43.25A3.1,3.1,0,0,1,266.47,40a2.92,2.92,0,0,1,2.08.81l-.72.79a1.86,1.86,0,0,0-1.32-.52,1.91,1.91,0,0,0-1.9,2.16c0,1.37.68,2.19,2,2.19a1.38,1.38,0,0,0,.85-.24V43.92h-1.19v-1h2.39v2.83a3.3,3.3,0,0,1-2.18.76A3,3,0,0,1,263.24,43.25Z"/></g></g></svg>